<?xml version="1.0" encoding="utf-8"?>
<!-- Generator: $$$/GeneralStr/196=Adobe Illustrator 27.6.0, SVG Export Plug-In . SVG Version: 6.00 Build 0)  -->
<svg version="1.1" id="Capa_1" xmlns="http://www.w3.org/2000/svg" xmlns:xlink="http://www.w3.org/1999/xlink" x="0px" y="0px"
	 viewBox="0 0 450 450" style="enable-background:new 0 0 450 450;" xml:space="preserve">
<style type="text/css">
	.st0{fill:#B3F1B0;}
	.st1{clip-path:url(#SVGID_00000173162556982423503060000002584851045833553596_);}
	.st2{fill:none;stroke:#51CB59;stroke-width:1.5;stroke-miterlimit:10;}
	.st3{fill:#DECDEE;}
	.st4{clip-path:url(#SVGID_00000006706220573908002250000006398873230242041009_);}
	.st5{fill:none;stroke:#8D4ECD;stroke-width:1.44;stroke-miterlimit:10;}
</style>
<g>
	<defs>
		<rect id="SVGID_1_" x="-504.5" width="450" height="450"/>
	</defs>
	<clipPath id="SVGID_00000109027484241957315380000016559177550393156490_">
		<use xlink:href="#SVGID_1_"  style="overflow:visible;"/>
	</clipPath>
	<g style="clip-path:url(#SVGID_00000109027484241957315380000016559177550393156490_);">
		<g>
			<g>
				<polygon class="st2" points="39.2,498.9 39.2,456.7 2.7,435.6 -33.9,456.7 -33.9,498.9 2.7,520 				"/>
			</g>
		</g>
		<g>
			<g>
				<polygon class="st2" points="60.2,456.7 60.2,414.5 23.7,393.4 -12.8,414.5 -12.8,456.7 23.7,477.8 				"/>
			</g>
		</g>
		<g>
			<g>
				<polygon class="st2" points="133.3,498.9 133.3,456.7 96.8,435.6 60.2,456.7 60.2,498.9 96.8,520 				"/>
			</g>
		</g>
		<g>
			<g>
				<path class="st2" d="M8.2,372.3l0-39.6c0-1.6-0.9-3.1-2.2-3.9l-32.1-18.5c-1.4-0.8-3.1-0.8-4.5,0l-34.3,19.8l0,39.6
					c0,1.6,0.9,3.1,2.2,3.9l32.1,18.5c1.4,0.8,3.1,0.8,4.5,0L8.2,372.3z"/>
			</g>
		</g>
		<g>
			<g>
				<path class="st2" d="M81.2,414.5l0-39.6c0-1.6-0.9-3.1-2.2-3.9L47,352.5c-1.4-0.8-3.1-0.8-4.5,0L8.2,372.3l0,39.6
					c0,1.6,0.9,3.1,2.2,3.9l32.1,18.5c1.4,0.8,3.1,0.8,4.5,0L81.2,414.5z"/>
			</g>
		</g>
		<g>
			<g>
				<polygon class="st2" points="154.3,456.7 154.3,414.5 117.8,393.4 81.2,414.5 81.2,456.7 117.8,477.8 				"/>
			</g>
		</g>
		<g>
			<g>
				<polygon class="st2" points="227.4,498.9 227.4,456.7 190.9,435.6 154.3,456.7 154.3,498.9 190.9,520 				"/>
			</g>
		</g>
		<g>
			<g>
				<path class="st2" d="M29.2,330.1l0-39.6c0-1.6-0.9-3.1-2.2-3.9l-32.1-18.5c-1.4-0.8-3.1-0.8-4.5,0l-34.3,19.8l0,39.6
					c0,1.6,0.9,3.1,2.2,3.9l32.1,18.5c1.4,0.8,3.1,0.8,4.5,0L29.2,330.1z"/>
			</g>
		</g>
		<g>
			<g>
				<path class="st2" d="M102.3,372.3l0-39.6c0-1.6-0.9-3.1-2.2-3.9L68,310.3c-1.4-0.8-3.1-0.8-4.5,0l-34.3,19.8l0,39.6
					c0,1.6,0.9,3.1,2.2,3.9l32.1,18.5c1.4,0.8,3.1,0.8,4.5,0L102.3,372.3z"/>
			</g>
		</g>
		<g>
			<g>
				<path class="st2" d="M175.3,414.5l0-39.6c0-1.6-0.9-3.1-2.2-3.9L141,352.5c-1.4-0.8-3.1-0.8-4.5,0l-34.3,19.8l0,39.6
					c0,1.6,0.9,3.1,2.2,3.9l32.1,18.5c1.4,0.8,3.1,0.8,4.5,0L175.3,414.5z"/>
			</g>
		</g>
		<g>
			<g>
				<polygon class="st2" points="248.4,456.7 248.4,414.5 211.9,393.4 175.3,414.5 175.3,456.7 211.9,477.8 				"/>
			</g>
		</g>
		<g>
			<g>
				<polygon class="st2" points="321.5,498.9 321.5,456.7 284.9,435.6 248.4,456.7 248.4,498.9 284.9,520 				"/>
			</g>
		</g>
		<g>
			<g>
				<path class="st2" d="M50.2,287.9l0-39.6c0-1.6-0.9-3.1-2.2-3.9l-32.1-18.5c-1.4-0.8-3.1-0.8-4.5,0l-34.3,19.8l0,39.6
					c0,1.6,0.9,3.1,2.2,3.9l32.1,18.5c1.4,0.8,3.1,0.8,4.5,0L50.2,287.9z"/>
			</g>
		</g>
		<g>
			<g>
				<path class="st2" d="M123.3,330.1l0-39.6c0-1.6-0.9-3.1-2.2-3.9L89,268.1c-1.4-0.8-3.1-0.8-4.5,0l-34.3,19.8l0,39.6
					c0,1.6,0.9,3.1,2.2,3.9l32.1,18.5c1.4,0.8,3.1,0.8,4.5,0L123.3,330.1z"/>
			</g>
		</g>
		<g>
			<g>
				<path class="st2" d="M196.4,372.3l0-39.6c0-1.6-0.9-3.1-2.2-3.9l-32.1-18.5c-1.4-0.8-3.1-0.8-4.5,0l-34.3,19.8l0,39.6
					c0,1.6,0.9,3.1,2.2,3.9l32.1,18.5c1.4,0.8,3.1,0.8,4.5,0L196.4,372.3z"/>
			</g>
		</g>
		<g>
			<g>
				<path class="st2" d="M269.4,414.5l0-39.6c0-1.6-0.9-3.1-2.2-3.9l-32.1-18.5c-1.4-0.8-3.1-0.8-4.5,0l-34.3,19.8l0,39.6
					c0,1.6,0.9,3.1,2.2,3.9l32.1,18.5c1.4,0.8,3.1,0.8,4.5,0L269.4,414.5z"/>
			</g>
		</g>
		<g>
			<g>
				<polygon class="st2" points="342.5,456.7 342.5,414.5 306,393.4 269.4,414.5 269.4,456.7 306,477.8 				"/>
			</g>
		</g>
		<g>
			<g>
				<polygon class="st2" points="415.6,498.9 415.6,456.7 379,435.6 342.5,456.7 342.5,498.9 379,520 				"/>
			</g>
		</g>
		<g>
			<g>
				<path class="st2" d="M71.2,245.7l0-39.6c0-1.6-0.9-3.1-2.2-3.9l-32.1-18.5c-1.4-0.8-3.1-0.8-4.5,0l-34.3,19.8l0,39.6
					c0,1.6,0.9,3.1,2.2,3.9l32.1,18.5c1.4,0.8,3.1,0.8,4.5,0L71.2,245.7z"/>
			</g>
		</g>
		<g>
			<g>
				<path class="st2" d="M144.3,287.9l0-39.6c0-1.6-0.9-3.1-2.2-3.9L110,225.9c-1.4-0.8-3.1-0.8-4.5,0l-34.3,19.8l0,39.6
					c0,1.6,0.9,3.1,2.2,3.9l32.1,18.5c1.4,0.8,3.1,0.8,4.5,0L144.3,287.9z"/>
			</g>
		</g>
		<g>
			<g>
				<path class="st2" d="M217.4,330.1l0-39.6c0-1.6-0.9-3.1-2.2-3.9l-32.1-18.5c-1.4-0.8-3.1-0.8-4.5,0l-34.3,19.8l0,39.6
					c0,1.6,0.9,3.1,2.2,3.9l32.1,18.5c1.4,0.8,3.1,0.8,4.5,0L217.4,330.1z"/>
			</g>
		</g>
		<g>
			<g>
				<path class="st2" d="M290.4,372.3l0-39.6c0-1.6-0.9-3.1-2.2-3.9l-32.1-18.5c-1.4-0.8-3.1-0.8-4.5,0l-34.3,19.8v39.6
					c0,1.6,0.9,3.1,2.2,3.9l32.1,18.5c1.4,0.8,3.1,0.8,4.5,0L290.4,372.3z"/>
			</g>
		</g>
		<g>
			<g>
				<path class="st2" d="M363.5,414.5v-39.6c0-1.6-0.9-3.1-2.2-3.9l-32.1-18.5c-1.4-0.8-3.1-0.8-4.5,0l-34.3,19.8v39.6
					c0,1.6,0.9,3.1,2.2,3.9l32.1,18.5c1.4,0.8,3.1,0.8,4.5,0L363.5,414.5z"/>
			</g>
		</g>
		<g>
			<g>
				<polygon class="st2" points="436.6,456.7 436.6,414.5 400.1,393.4 363.5,414.5 363.5,456.7 400.1,477.8 				"/>
			</g>
		</g>
		<g>
			<g>
				<polygon class="st2" points="509.7,498.9 509.7,456.7 473.1,435.6 436.6,456.7 436.6,498.9 473.1,520 				"/>
			</g>
		</g>
		<g>
			<g>
				<path class="st2" d="M19.2,161.4l0-39.6c0-1.6-0.9-3.1-2.2-3.9l-32.1-18.5c-1.4-0.8-3.1-0.8-4.5,0l-34.3,19.8l0,39.6
					c0,1.6,0.9,3.1,2.2,3.9l32.1,18.5c1.4,0.8,3.1,0.8,4.5,0L19.2,161.4z"/>
			</g>
		</g>
		<g>
			<g>
				<path class="st2" d="M92.2,203.6l0-39.6c0-1.6-0.9-3.1-2.2-3.9l-32.1-18.5c-1.4-0.8-3.1-0.8-4.5,0l-34.3,19.8l0,39.6
					c0,1.6,0.9,3.1,2.2,3.9l32.1,18.5c1.4,0.8,3.1,0.8,4.5,0L92.2,203.6z"/>
			</g>
		</g>
		<g>
			<g>
				<path class="st2" d="M165.3,245.7l0-39.6c0-1.6-0.9-3.1-2.2-3.9L131,183.8c-1.4-0.8-3.1-0.8-4.5,0l-34.3,19.8l0,39.6
					c0,1.6,0.9,3.1,2.2,3.9l32.1,18.5c1.4,0.8,3.1,0.8,4.5,0L165.3,245.7z"/>
			</g>
		</g>
		<g>
			<g>
				<path class="st2" d="M238.4,287.9l0-39.6c0-1.6-0.9-3.1-2.2-3.9l-32.1-18.5c-1.4-0.8-3.1-0.8-4.5,0l-34.3,19.8l0,39.6
					c0,1.6,0.9,3.1,2.2,3.9l32.1,18.5c1.4,0.8,3.1,0.8,4.5,0L238.4,287.9z"/>
			</g>
		</g>
		<g>
			<g>
				<path class="st2" d="M311.5,330.1l0-39.6c0-1.6-0.9-3.1-2.2-3.9l-32.1-18.5c-1.4-0.8-3.1-0.8-4.5,0l-34.3,19.8l0,39.6
					c0,1.6,0.9,3.1,2.2,3.9l32.1,18.5c1.4,0.8,3.1,0.8,4.5,0L311.5,330.1z"/>
			</g>
		</g>
		<g>
			<g>
				<path class="st2" d="M384.5,372.3l0-39.6c0-1.6-0.9-3.1-2.2-3.9l-32.1-18.5c-1.4-0.8-3.1-0.8-4.5,0l-34.3,19.8v39.6
					c0,1.6,0.9,3.1,2.2,3.9l32.1,18.5c1.4,0.8,3.1,0.8,4.5,0L384.5,372.3z"/>
			</g>
		</g>
		<g>
			<g>
				<path class="st2" d="M457.6,414.5v-39.6c0-1.6-0.9-3.1-2.2-3.9l-32.1-18.5c-1.4-0.8-3.1-0.8-4.5,0l-34.3,19.8v39.6
					c0,1.6,0.9,3.1,2.2,3.9l32.1,18.5c1.4,0.8,3.1,0.8,4.5,0L457.6,414.5z"/>
			</g>
		</g>
		<g>
			<g>
				<path class="st2" d="M40.2,119.2l0-39.6c0-1.6-0.9-3.1-2.2-3.9L5.9,57.2c-1.4-0.8-3.1-0.8-4.5,0L-32.9,77l0,39.6
					c0,1.6,0.9,3.1,2.2,3.9L1.4,139c1.4,0.8,3.1,0.8,4.5,0L40.2,119.2z"/>
			</g>
		</g>
		<g>
			<g>
				<path class="st2" d="M113.3,161.4l0-39.6c0-1.6-0.9-3.1-2.2-3.9L79,99.4c-1.4-0.8-3.1-0.8-4.5,0l-34.3,19.8l0,39.6
					c0,1.6,0.9,3.1,2.2,3.9l32.1,18.5c1.4,0.8,3.1,0.8,4.5,0L113.3,161.4z"/>
			</g>
		</g>
		<g>
			<g>
				<path class="st2" d="M186.3,203.6l0-39.6c0-1.6-0.9-3.1-2.2-3.9L152,141.6c-1.4-0.8-3.1-0.8-4.5,0l-34.3,19.8l0,39.6
					c0,1.6,0.9,3.1,2.2,3.9l32.1,18.5c1.4,0.8,3.1,0.8,4.5,0L186.3,203.6z"/>
			</g>
		</g>
		<g>
			<g>
				<path class="st2" d="M259.4,245.7v-39.6c0-1.6-0.9-3.1-2.2-3.9l-32.1-18.5c-1.4-0.8-3.1-0.8-4.5,0l-34.3,19.8l0,39.6
					c0,1.6,0.9,3.1,2.2,3.9l32.1,18.5c1.4,0.8,3.1,0.8,4.5,0L259.4,245.7z"/>
			</g>
		</g>
		<g>
			<g>
				<path class="st2" d="M332.5,287.9l0-39.6c0-1.6-0.9-3.1-2.2-3.9l-32.1-18.5c-1.4-0.8-3.1-0.8-4.5,0l-34.3,19.8v39.6
					c0,1.6,0.9,3.1,2.2,3.9l32.1,18.5c1.4,0.8,3.1,0.8,4.5,0L332.5,287.9z"/>
			</g>
		</g>
		<g>
			<g>
				<path class="st2" d="M405.5,330.1l0-39.6c0-1.6-0.9-3.1-2.2-3.9l-32.1-18.5c-1.4-0.8-3.1-0.8-4.5,0l-34.3,19.8v39.6
					c0,1.6,0.9,3.1,2.2,3.9l32.1,18.5c1.4,0.8,3.1,0.8,4.5,0L405.5,330.1z"/>
			</g>
		</g>
		<g>
			<g>
				<path class="st2" d="M478.6,372.3l0-39.6c0-1.6-0.9-3.1-2.2-3.9l-32.1-18.5c-1.4-0.8-3.1-0.8-4.5,0l-34.3,19.8v39.6
					c0,1.6,0.9,3.1,2.2,3.9l32.1,18.5c1.4,0.8,3.1,0.8,4.5,0L478.6,372.3z"/>
			</g>
		</g>
		<g>
			<g>
				<path class="st2" d="M61.2,77l0-39.6c0-1.6-0.9-3.1-2.2-3.9L26.9,15c-1.4-0.8-3.1-0.8-4.5,0l-34.3,19.8l0,39.6
					c0,1.6,0.9,3.1,2.2,3.9l32.1,18.5c1.4,0.8,3.1,0.8,4.5,0L61.2,77z"/>
			</g>
		</g>
		<g>
			<g>
				<path class="st2" d="M134.3,119.2l0-39.6c0-1.6-0.9-3.1-2.2-3.9L100,57.2c-1.4-0.8-3.1-0.8-4.5,0L61.2,77l0,39.6
					c0,1.6,0.9,3.1,2.2,3.9L95.5,139c1.4,0.8,3.1,0.8,4.5,0L134.3,119.2z"/>
			</g>
		</g>
		<g>
			<g>
				<path class="st2" d="M207.3,161.4v-39.6c0-1.6-0.9-3.1-2.2-3.9L173,99.4c-1.4-0.8-3.1-0.8-4.5,0l-34.3,19.8l0,39.6
					c0,1.6,0.9,3.1,2.2,3.9l32.1,18.5c1.4,0.8,3.1,0.8,4.5,0L207.3,161.4z"/>
			</g>
		</g>
		<g>
			<g>
				<path class="st2" d="M280.4,203.6V164c0-1.6-0.9-3.1-2.2-3.9l-32.1-18.5c-1.4-0.8-3.1-0.8-4.5,0l-34.3,19.8l0,39.6
					c0,1.6,0.9,3.1,2.2,3.9l32.1,18.5c1.4,0.8,3.1,0.8,4.5,0L280.4,203.6z"/>
			</g>
		</g>
		<g>
			<g>
				<path class="st2" d="M353.5,245.7l0-39.6c0-1.6-0.9-3.1-2.2-3.9l-32.1-18.5c-1.4-0.8-3.1-0.8-4.5,0l-34.3,19.8l0,39.6
					c0,1.6,0.9,3.1,2.2,3.9l32.1,18.5c1.4,0.8,3.1,0.8,4.5,0L353.5,245.7z"/>
			</g>
		</g>
		<g>
			<g>
				<path class="st2" d="M426.6,287.9l0-39.6c0-1.6-0.9-3.1-2.2-3.9l-32.1-18.5c-1.4-0.8-3.1-0.8-4.5,0l-34.3,19.8v39.6
					c0,1.6,0.9,3.1,2.2,3.9l32.1,18.5c1.4,0.8,3.1,0.8,4.5,0L426.6,287.9z"/>
			</g>
		</g>
		<g>
			<g>
				<path class="st2" d="M499.6,330.1l0-39.6c0-1.6-0.9-3.1-2.2-3.9l-32.1-18.5c-1.4-0.8-3.1-0.8-4.5,0l-34.3,19.8v39.6
					c0,1.6,0.9,3.1,2.2,3.9l32.1,18.5c1.4,0.8,3.1,0.8,4.5,0L499.6,330.1z"/>
			</g>
		</g>
		<g>
			<g>
				<path class="st2" d="M9.1-7.4l0-39.6c0-1.6-0.9-3.1-2.2-3.9l-32.1-18.5c-1.4-0.8-3.1-0.8-4.5,0l-34.3,19.8l0,39.6
					c0,1.6,0.9,3.1,2.2,3.9l32.1,18.5c1.4,0.8,3.1,0.8,4.5,0L9.1-7.4z"/>
			</g>
		</g>
		<g>
			<g>
				<path class="st2" d="M82.2,34.8l0-39.6c0-1.6-0.9-3.1-2.2-3.9L47.9-27.2c-1.4-0.8-3.1-0.8-4.5,0L9.1-7.4l0,39.6
					c0,1.6,0.9,3.1,2.2,3.9l32.1,18.5c1.4,0.8,3.1,0.8,4.5,0L82.2,34.8z"/>
			</g>
		</g>
		<g>
			<g>
				<path class="st2" d="M155.3,77l0-39.6c0-1.6-0.9-3.1-2.2-3.9L121,15c-1.4-0.8-3.1-0.8-4.5,0L82.2,34.8l0,39.6
					c0,1.6,0.9,3.1,2.2,3.9l32.1,18.5c1.4,0.8,3.1,0.8,4.5,0L155.3,77z"/>
			</g>
		</g>
		<g>
			<g>
				<path class="st2" d="M228.4,119.2l0-39.6c0-1.6-0.9-3.1-2.2-3.9l-32.1-18.5c-1.4-0.8-3.1-0.8-4.5,0L155.3,77l0,39.6
					c0,1.6,0.9,3.1,2.2,3.9l32.1,18.5c1.4,0.8,3.1,0.8,4.5,0L228.4,119.2z"/>
			</g>
		</g>
		<g>
			<g>
				<path class="st2" d="M301.4,161.4v-39.6c0-1.6-0.9-3.1-2.2-3.9l-32.1-18.5c-1.4-0.8-3.1-0.8-4.5,0l-34.3,19.8l0,39.6
					c0,1.6,0.9,3.1,2.2,3.9l32.1,18.5c1.4,0.8,3.1,0.8,4.5,0L301.4,161.4z"/>
			</g>
		</g>
		<g>
			<g>
				<path class="st2" d="M374.5,203.6V164c0-1.6-0.9-3.1-2.2-3.9l-32.1-18.5c-1.4-0.8-3.1-0.8-4.5,0l-34.3,19.8l0,39.6
					c0,1.6,0.9,3.1,2.2,3.9l32.1,18.5c1.4,0.8,3.1,0.8,4.5,0L374.5,203.6z"/>
			</g>
		</g>
		<g>
			<g>
				<path class="st2" d="M447.6,245.7l0-39.6c0-1.6-0.9-3.1-2.2-3.9l-32.1-18.5c-1.4-0.8-3.1-0.8-4.5,0l-34.3,19.8v39.6
					c0,1.6,0.9,3.1,2.2,3.9l32.1,18.5c1.4,0.8,3.1,0.8,4.5,0L447.6,245.7z"/>
			</g>
		</g>
		<g>
			<g>
				<path class="st2" d="M520.6,287.9v-39.6c0-1.6-0.9-3.1-2.2-3.9l-32.1-18.5c-1.4-0.8-3.1-0.8-4.5,0l-34.3,19.8v39.6
					c0,1.6,0.9,3.1,2.2,3.9l32.1,18.5c1.4,0.8,3.1,0.8,4.5,0L520.6,287.9z"/>
			</g>
		</g>
		<g>
			<g>
				<path class="st2" d="M103.2-7.4l0-39.6c0-1.6-0.9-3.1-2.2-3.9L68.9-69.4c-1.4-0.8-3.1-0.8-4.5,0L30.2-49.6l0,39.6
					c0,1.6,0.9,3.1,2.2,3.9l32.1,18.5c1.4,0.8,3.1,0.8,4.5,0L103.2-7.4z"/>
			</g>
		</g>
		<g>
			<g>
				<path class="st2" d="M176.3,34.8l0-39.6c0-1.6-0.9-3.1-2.2-3.9L142-27.2c-1.4-0.8-3.1-0.8-4.5,0L103.2-7.4l0,39.6
					c0,1.6,0.9,3.1,2.2,3.9l32.1,18.5c1.4,0.8,3.1,0.8,4.5,0L176.3,34.8z"/>
			</g>
		</g>
		<g>
			<g>
				<path class="st2" d="M249.4,77l0-39.6c0-1.6-0.9-3.1-2.2-3.9L215.1,15c-1.4-0.8-3.1-0.8-4.5,0l-34.3,19.8l0,39.6
					c0,1.6,0.9,3.1,2.2,3.9l32.1,18.5c1.4,0.8,3.1,0.8,4.5,0L249.4,77z"/>
			</g>
		</g>
		<g>
			<g>
				<path class="st2" d="M322.4,119.2V79.6c0-1.6-0.9-3.1-2.2-3.9l-32.1-18.5c-1.4-0.8-3.1-0.8-4.5,0L249.4,77l0,39.6
					c0,1.6,0.9,3.1,2.2,3.9l32.1,18.5c1.4,0.8,3.1,0.8,4.5,0L322.4,119.2z"/>
			</g>
		</g>
		<g>
			<g>
				<path class="st2" d="M395.5,161.4v-39.6c0-1.6-0.9-3.1-2.2-3.9l-32.1-18.5c-1.4-0.8-3.1-0.8-4.5,0l-34.3,19.8l0,39.6
					c0,1.6,0.9,3.1,2.2,3.9l32.1,18.5c1.4,0.8,3.1,0.8,4.5,0L395.5,161.4z"/>
			</g>
		</g>
		<g>
			<g>
				<path class="st2" d="M468.6,203.6V164c0-1.6-0.9-3.1-2.2-3.9l-32.1-18.5c-1.4-0.8-3.1-0.8-4.5,0l-34.3,19.8l0,39.6
					c0,1.6,0.9,3.1,2.2,3.9l32.1,18.5c1.4,0.8,3.1,0.8,4.5,0L468.6,203.6z"/>
			</g>
		</g>
		<g>
			<g>
				<path class="st2" d="M197.3-7.4l0-39.6c0-1.6-0.9-3.1-2.2-3.9L163-69.4c-1.4-0.8-3.1-0.8-4.5,0l-34.3,19.8l0,39.6
					c0,1.6,0.9,3.1,2.2,3.9l32.1,18.5c1.4,0.8,3.1,0.8,4.5,0L197.3-7.4z"/>
			</g>
		</g>
		<g>
			<g>
				<path class="st2" d="M270.4,34.8l0-39.6c0-1.6-0.9-3.1-2.2-3.9l-32.1-18.5c-1.4-0.8-3.1-0.8-4.5,0L197.3-7.4l0,39.6
					c0,1.6,0.9,3.1,2.2,3.9l32.1,18.5c1.4,0.8,3.1,0.8,4.5,0L270.4,34.8z"/>
			</g>
		</g>
		<g>
			<g>
				<path class="st2" d="M343.5,77V37.4c0-1.6-0.9-3.1-2.2-3.9L309.2,15c-1.4-0.8-3.1-0.8-4.5,0l-34.3,19.8v39.6
					c0,1.6,0.9,3.1,2.2,3.9l32.1,18.5c1.4,0.8,3.1,0.8,4.5,0L343.5,77z"/>
			</g>
		</g>
		<g>
			<g>
				<path class="st2" d="M416.5,119.2V79.6c0-1.6-0.9-3.1-2.2-3.9l-32.1-18.5c-1.4-0.8-3.1-0.8-4.5,0L343.5,77l0,39.6
					c0,1.6,0.9,3.1,2.2,3.9l32.1,18.5c1.4,0.8,3.1,0.8,4.5,0L416.5,119.2z"/>
			</g>
		</g>
		<g>
			<g>
				<path class="st2" d="M489.6,161.4v-39.6c0-1.6-0.9-3.1-2.2-3.9l-32.1-18.5c-1.4-0.8-3.1-0.8-4.5,0l-34.3,19.8l0,39.6
					c0,1.6,0.9,3.1,2.2,3.9l32.1,18.5c1.4,0.8,3.1,0.8,4.5,0L489.6,161.4z"/>
			</g>
		</g>
		<g>
			<g>
				<path class="st2" d="M291.4-7.4l0-39.6c0-1.6-0.9-3.1-2.2-3.9l-32.1-18.5c-1.4-0.8-3.1-0.8-4.5,0l-34.3,19.8l0,39.6
					c0,1.6,0.9,3.1,2.2,3.9l32.1,18.5c1.4,0.8,3.1,0.8,4.5,0L291.4-7.4z"/>
			</g>
		</g>
		<g>
			<g>
				<path class="st2" d="M364.5,34.8V-4.8c0-1.6-0.9-3.1-2.2-3.9l-32.1-18.5c-1.4-0.8-3.1-0.8-4.5,0L291.4-7.4v39.6
					c0,1.6,0.9,3.1,2.2,3.9l32.1,18.5c1.4,0.8,3.1,0.8,4.5,0L364.5,34.8z"/>
			</g>
		</g>
		<g>
			<g>
				<path class="st2" d="M437.5,77V37.4c0-1.6-0.9-3.1-2.2-3.9L403.3,15c-1.4-0.8-3.1-0.8-4.5,0l-34.3,19.8l0,39.6
					c0,1.6,0.9,3.1,2.2,3.9l32.1,18.5c1.4,0.8,3.1,0.8,4.5,0L437.5,77z"/>
			</g>
		</g>
		<g>
			<g>
				<path class="st2" d="M510.6,119.2V79.6c0-1.6-0.9-3.1-2.2-3.9l-32.1-18.5c-1.4-0.8-3.1-0.8-4.5,0L437.5,77l0,39.6
					c0,1.6,0.9,3.1,2.2,3.9l32.1,18.5c1.4,0.8,3.1,0.8,4.5,0L510.6,119.2z"/>
			</g>
		</g>
		<g>
			<g>
				<path class="st2" d="M385.5-7.4l0-39.6c0-1.6-0.9-3.1-2.2-3.9l-32.1-18.5c-1.4-0.8-3.1-0.8-4.5,0l-34.3,19.8V-10
					c0,1.6,0.9,3.1,2.2,3.9l32.1,18.5c1.4,0.8,3.1,0.8,4.5,0L385.5-7.4z"/>
			</g>
		</g>
		<g>
			<g>
				<path class="st2" d="M458.6,34.8V-4.8c0-1.6-0.9-3.1-2.2-3.9l-32.1-18.5c-1.4-0.8-3.1-0.8-4.5,0L385.5-7.4v39.6
					c0,1.6,0.9,3.1,2.2,3.9l32.1,18.5c1.4,0.8,3.1,0.8,4.5,0L458.6,34.8z"/>
			</g>
		</g>
		<g>
			<g>
				<path class="st2" d="M479.6-7.4l0-39.6c0-1.6-0.9-3.1-2.2-3.9l-32.1-18.5c-1.4-0.8-3.1-0.8-4.5,0l-34.3,19.8V-10
					c0,1.6,0.9,3.1,2.2,3.9l32.1,18.5c1.4,0.8,3.1,0.8,4.5,0L479.6-7.4z"/>
			</g>
		</g>
	</g>
</g>
<rect class="st3" width="450" height="450"/>
<g>
	<defs>
		<rect id="SVGID_00000038384628513745881380000005199134174621847946_" width="450" height="450"/>
	</defs>
	<clipPath id="SVGID_00000060003765569690666930000003640266044584739748_">
		<use xlink:href="#SVGID_00000038384628513745881380000005199134174621847946_"  style="overflow:visible;"/>
	</clipPath>
	<g style="clip-path:url(#SVGID_00000060003765569690666930000003640266044584739748_);">
		<path class="st5" d="M232.5,211.6l-15,0c-0.3,0-0.5,0.1-0.6,0.4l-7.3,12.6c-0.1,0.2-0.1,0.5,0,0.7l7.3,12.6
			c0.1,0.2,0.4,0.4,0.6,0.4l15,0c0.3,0,0.5-0.1,0.6-0.4l7.3-12.6c0.1-0.2,0.1-0.5,0-0.7l-7.3-12.6
			C233,211.8,232.8,211.6,232.5,211.6z"/>
		<path class="st5" d="M240.7,197l-31.4,0c-0.6,0-1.1,0.3-1.4,0.8l-15.3,26.4c-0.3,0.5-0.3,1.1,0,1.6l15.3,26.4
			c0.3,0.5,0.8,0.8,1.4,0.8l31.4,0c0.6,0,1.1-0.3,1.4-0.8l15.3-26.4c0.3-0.5,0.3-1.1,0-1.6L242,197.8
			C241.8,197.3,241.2,197,240.7,197z"/>
		<path class="st5" d="M248.9,182.4l-47.7,0c-0.8,0-1.6,0.5-2.1,1.2l-23.2,40.3c-0.4,0.7-0.4,1.6,0,2.4l23.2,40.3
			c0.4,0.7,1.2,1.2,2.1,1.2l47.7,0c0.8,0,1.6-0.5,2.1-1.2l23.2-40.3c0.4-0.7,0.4-1.6,0-2.4l-23.2-40.3
			C250.5,182.8,249.7,182.4,248.9,182.4z"/>
		<path class="st5" d="M257.1,167.7l-64.1,0c-1.1,0-2.2,0.6-2.8,1.6l-31.2,54.1c-0.6,1-0.6,2.2,0,3.2l31.2,54.1
			c0.6,1,1.6,1.6,2.8,1.6l64.1,0c1.1,0,2.2-0.6,2.8-1.6l31.2-54.1c0.6-1,0.6-2.2,0-3.2l-31.2-54.1
			C259.3,168.3,258.2,167.7,257.1,167.7z"/>
		<path class="st5" d="M265.3,153.1l-80.5,0c-1.4,0-2.8,0.8-3.5,2L142.1,223c-0.7,1.2-0.7,2.8,0,4l39.2,67.9c0.7,1.2,2,2,3.5,2
			l80.5,0c1.4,0,2.8-0.8,3.5-2l39.2-67.9c0.7-1.2,0.7-2.8,0-4l-39.2-67.9C268,153.8,266.7,153.1,265.3,153.1z"/>
		<path class="st5" d="M273.4,138.4l-96.9,0c-1.7,0-3.3,0.9-4.2,2.4l-47.2,81.7c-0.9,1.5-0.9,3.3,0,4.8l47.2,81.7
			c0.9,1.5,2.5,2.4,4.2,2.4l96.9,0c1.7,0,3.3-0.9,4.2-2.4l47.2-81.7c0.9-1.5,0.9-3.3,0-4.8l-47.2-81.7
			C276.8,139.4,275.2,138.4,273.4,138.4z"/>
		<path class="st5" d="M281.6,123.8l-113.3,0c-2,0-3.9,1.1-4.9,2.8l-55.2,95.5c-1,1.7-1,3.9,0,5.6l55.2,95.5c1,1.7,2.9,2.8,4.9,2.8
			l113.3,0c2,0,3.9-1.1,4.9-2.8l55.2-95.5c1-1.7,1-3.9,0-5.6l-55.2-95.5C285.5,124.9,283.7,123.8,281.6,123.8z"/>
		<path class="st5" d="M289.8,109.2l-129.7,0c-2.3,0-4.4,1.2-5.6,3.2L91.4,221.8c-1.2,2-1.2,4.5,0,6.5l63.1,109.4
			c1.2,2,3.3,3.2,5.6,3.2l129.7,0c2.3,0,4.4-1.2,5.6-3.2l63.1-109.4c1.2-2,1.2-4.5,0-6.5l-63.1-109.4
			C294.3,110.4,292.1,109.2,289.8,109.2z"/>
		<path class="st5" d="M298,94.5l-146.1,0c-2.6,0-5,1.4-6.3,3.6L74.6,221.4c-1.3,2.2-1.3,5,0,7.3l71.1,123.2
			c1.3,2.2,3.7,3.6,6.3,3.6l146.1,0c2.6,0,5-1.4,6.3-3.6l71.1-123.2c1.3-2.2,1.3-5,0-7.3L304.3,98.2C303,95.9,300.6,94.5,298,94.5z"
			/>
		<path class="st5" d="M306.2,79.9l-162.4,0c-2.9,0-5.6,1.5-7,4L57.7,221c-1.4,2.5-1.4,5.6,0,8.1l79.1,137c1.4,2.5,4.1,4,7,4
			l162.4,0c2.9,0,5.6-1.5,7-4l79.1-137c1.4-2.5,1.4-5.6,0-8.1l-79.1-137C311.8,81.4,309.1,79.9,306.2,79.9z"/>
		<path class="st5" d="M314.4,65.3l-178.8,0c-3.2,0-6.1,1.7-7.7,4.5L40.8,220.5c-1.6,2.8-1.6,6.1,0,8.9l87.1,150.8
			c1.6,2.8,4.5,4.5,7.7,4.5l178.8,0c3.2,0,6.1-1.7,7.7-4.5l87.1-150.8c1.6-2.8,1.6-6.1,0-8.9L322.1,69.7
			C320.5,67,317.6,65.3,314.4,65.3z"/>
		<path class="st5" d="M322.6,50.6l-195.2,0c-3.5,0-6.7,1.9-8.4,4.9L23.9,220.1c-1.7,3-1.7,6.7,0,9.7L119,394.5
			c1.7,3,4.9,4.9,8.4,4.9l195.2,0c3.5,0,6.7-1.9,8.4-4.9l95.1-164.6c1.7-3,1.7-6.7,0-9.7L331,55.5C329.3,52.5,326.1,50.6,322.6,50.6
			z"/>
		<path class="st5" d="M330.8,36l-211.6,0c-3.8,0-7.2,2-9.1,5.3L7,219.7c-1.9,3.3-1.9,7.3,0,10.5l103,178.5c1.9,3.3,5.4,5.3,9.1,5.3
			l211.6,0c3.8,0,7.2-2,9.1-5.3l103-178.5c1.9-3.3,1.9-7.3,0-10.5l-103-178.5C338,38,334.6,36,330.8,36z"/>
		<path class="st5" d="M339,21.4l-228,0c-4.1,0-7.8,2.2-9.8,5.7l-111,192.3c-2,3.5-2,7.8,0,11.4l111,192.3c2,3.5,5.8,5.7,9.8,5.7
			l228,0c4.1,0,7.8-2.2,9.8-5.7l111-192.3c2-3.5,2-7.8,0-11.4L348.8,27C346.8,23.5,343,21.4,339,21.4z"/>
		<path class="st5" d="M347.2,6.7l-244.4,0c-4.3,0-8.4,2.3-10.5,6.1l-119,206.1c-2.2,3.8-2.2,8.4,0,12.2l119,206.1
			c2.2,3.8,6.2,6.1,10.5,6.1l244.4,0c4.3,0,8.4-2.3,10.5-6.1l119-206.1c2.2-3.8,2.2-8.4,0-12.2l-119-206.1
			C355.6,9,351.5,6.7,347.2,6.7z"/>
		<path class="st5" d="M355.4-7.9l-260.8,0c-4.6,0-8.9,2.5-11.2,6.5l-127,219.9c-2.3,4-2.3,9,0,13l127,219.9c2.3,4,6.6,6.5,11.2,6.5
			l260.8,0c4.6,0,8.9-2.5,11.2-6.5l127-219.9c2.3-4,2.3-9,0-13L366.6-1.4C364.3-5.4,360-7.9,355.4-7.9z"/>
		<path class="st5" d="M363.6-22.5l-277.1,0c-4.9,0-9.5,2.6-11.9,6.9l-135,233.7c-2.5,4.3-2.5,9.5,0,13.8l135,233.7
			c2.5,4.3,7,6.9,11.9,6.9l277.1,0c4.9,0,9.5-2.6,11.9-6.9l135-233.7c2.5-4.3,2.5-9.5,0-13.8l-135-233.7
			C373.1-19.9,368.5-22.5,363.6-22.5z"/>
		<path class="st5" d="M371.8-37.2l-293.5,0c-5.2,0-10,2.8-12.7,7.3L-77.4,217.7c-2.6,4.5-2.6,10.1,0,14.6L65.6,479.9
			c2.6,4.5,7.4,7.3,12.7,7.3l293.5,0c5.2,0,10-2.8,12.7-7.3l142.9-247.6c2.6-4.5,2.6-10.1,0-14.6L384.4-29.9
			C381.8-34.4,377-37.2,371.8-37.2z"/>
		<path class="st5" d="M380-51.8L70-51.8c-5.5,0-10.6,2.9-13.4,7.7L-94.2,217.3c-2.8,4.8-2.8,10.7,0,15.4L56.7,494.1
			c2.8,4.8,7.8,7.7,13.4,7.7l309.9,0c5.5,0,10.6-2.9,13.4-7.7l150.9-261.4c2.8-4.8,2.8-10.7,0-15.4L393.3-44.1
			C390.6-48.9,385.5-51.8,380-51.8z"/>
		<path class="st5" d="M388.2-66.5l-326.3,0c-5.8,0-11.2,3.1-14.1,8.1l-158.9,275.2c-2.9,5-2.9,11.2,0,16.2L47.8,508.3
			c2.9,5,8.3,8.1,14.1,8.1l326.3,0c5.8,0,11.2-3.1,14.1-8.1l158.9-275.2c2.9-5,2.9-11.2,0-16.2L402.2-58.3
			C399.3-63.4,394-66.5,388.2-66.5z"/>
		<path class="st5" d="M396.3-81.1l-342.7,0c-6.1,0-11.7,3.3-14.8,8.5l-166.9,289c-3,5.3-3,11.8,0,17.1l166.9,289
			c3,5.3,8.7,8.5,14.8,8.5l342.7,0c6.1,0,11.7-3.3,14.8-8.5l166.9-289c3-5.3,3-11.8,0-17.1l-166.9-289
			C408.1-77.8,402.4-81.1,396.3-81.1z"/>
	</g>
</g>
</svg>
