<?xml version="1.0" encoding="utf-8"?>
<!-- Generator: $$$/GeneralStr/196=Adobe Illustrator 27.6.0, SVG Export Plug-In . SVG Version: 6.00 Build 0)  -->
<svg version="1.1" id="Capa_1" xmlns="http://www.w3.org/2000/svg" xmlns:xlink="http://www.w3.org/1999/xlink" x="0px" y="0px"
	 viewBox="0 0 450 450" style="enable-background:new 0 0 450 450;" xml:space="preserve">
<style type="text/css">
	.st0{fill:#B3F1B0;}
	.st1{clip-path:url(#SVGID_00000041275142514274457600000006196963134860292534_);}
	.st2{fill:none;stroke:#51CB59;stroke-width:1.5;stroke-miterlimit:10;}
	.st3{fill:#DECDEE;}
	.st4{clip-path:url(#SVGID_00000048461539187955530350000014565395132323260333_);}
	.st5{fill:none;stroke:#8D4ECD;stroke-width:1.44;stroke-miterlimit:10;}
</style>
<rect class="st0" width="450" height="450"/>
<g>
	<defs>
		<rect id="SVGID_1_" width="450" height="450"/>
	</defs>
	<clipPath id="SVGID_00000056419679113685424660000013555176769835540646_">
		<use xlink:href="#SVGID_1_"  style="overflow:visible;"/>
	</clipPath>
	<g style="clip-path:url(#SVGID_00000056419679113685424660000013555176769835540646_);">
		<g>
			<g>
				<polygon class="st2" points="0.2,456.7 0.2,414.5 -36.3,393.4 -72.9,414.5 -72.9,456.7 -36.3,477.8 				"/>
			</g>
		</g>
		<g>
			<g>
				<polygon class="st2" points="73.3,498.9 73.3,456.7 36.7,435.6 0.2,456.7 0.2,498.9 36.7,520 				"/>
			</g>
		</g>
		<g>
			<g>
				<path class="st2" d="M21.2,414.5l0-39.6c0-1.6-0.9-3.1-2.2-3.9l-32.1-18.5c-1.4-0.8-3.1-0.8-4.5,0l-34.3,19.8l0,39.6
					c0,1.6,0.9,3.1,2.2,3.9l32.1,18.5c1.4,0.8,3.1,0.8,4.5,0L21.2,414.5z"/>
			</g>
		</g>
		<g>
			<g>
				<polygon class="st2" points="94.3,456.7 94.3,414.5 57.8,393.4 21.2,414.5 21.2,456.7 57.8,477.8 				"/>
			</g>
		</g>
		<g>
			<g>
				<polygon class="st2" points="167.4,498.9 167.4,456.7 130.8,435.6 94.3,456.7 94.3,498.9 130.8,520 				"/>
			</g>
		</g>
		<g>
			<g>
				<path class="st2" d="M42.2,372.3l0-39.6c0-1.6-0.9-3.1-2.2-3.9L8,310.3c-1.4-0.8-3.1-0.8-4.5,0l-34.3,19.8l0,39.6
					c0,1.6,0.9,3.1,2.2,3.9l32.1,18.5c1.4,0.8,3.1,0.8,4.5,0L42.2,372.3z"/>
			</g>
		</g>
		<g>
			<g>
				<path class="st2" d="M115.3,414.5l0-39.6c0-1.6-0.9-3.1-2.2-3.9L81,352.5c-1.4-0.8-3.1-0.8-4.5,0l-34.3,19.8l0,39.6
					c0,1.6,0.9,3.1,2.2,3.9l32.1,18.5c1.4,0.8,3.1,0.8,4.5,0L115.3,414.5z"/>
			</g>
		</g>
		<g>
			<g>
				<polygon class="st2" points="188.4,456.7 188.4,414.5 151.9,393.4 115.3,414.5 115.3,456.7 151.9,477.8 				"/>
			</g>
		</g>
		<g>
			<g>
				<polygon class="st2" points="261.5,498.9 261.5,456.7 224.9,435.6 188.4,456.7 188.4,498.9 224.9,520 				"/>
			</g>
		</g>
		<g>
			<g>
				<path class="st2" d="M63.3,330.1l0-39.6c0-1.6-0.9-3.1-2.2-3.9L29,268.1c-1.4-0.8-3.1-0.8-4.5,0l-34.3,19.8l0,39.6
					c0,1.6,0.9,3.1,2.2,3.9l32.1,18.5c1.4,0.8,3.1,0.8,4.5,0L63.3,330.1z"/>
			</g>
		</g>
		<g>
			<g>
				<path class="st2" d="M136.3,372.3l0-39.6c0-1.6-0.9-3.1-2.2-3.9L102,310.3c-1.4-0.8-3.1-0.8-4.5,0l-34.3,19.8l0,39.6
					c0,1.6,0.9,3.1,2.2,3.9l32.1,18.5c1.4,0.8,3.1,0.8,4.5,0L136.3,372.3z"/>
			</g>
		</g>
		<g>
			<g>
				<path class="st2" d="M209.4,414.5l0-39.6c0-1.6-0.9-3.1-2.2-3.9l-32.1-18.5c-1.4-0.8-3.1-0.8-4.5,0l-34.3,19.8l0,39.6
					c0,1.6,0.9,3.1,2.2,3.9l32.1,18.5c1.4,0.8,3.1,0.8,4.5,0L209.4,414.5z"/>
			</g>
		</g>
		<g>
			<g>
				<polygon class="st2" points="282.5,456.7 282.5,414.5 245.9,393.4 209.4,414.5 209.4,456.7 245.9,477.8 				"/>
			</g>
		</g>
		<g>
			<g>
				<polygon class="st2" points="355.6,498.9 355.6,456.7 319,435.6 282.5,456.7 282.5,498.9 319,520 				"/>
			</g>
		</g>
		<g>
			<g>
				<path class="st2" d="M11.2,245.7l0-39.6c0-1.6-0.9-3.1-2.2-3.9l-32.1-18.5c-1.4-0.8-3.1-0.8-4.5,0l-34.3,19.8l0,39.6
					c0,1.6,0.9,3.1,2.2,3.9l32.1,18.5c1.4,0.8,3.1,0.8,4.5,0L11.2,245.7z"/>
			</g>
		</g>
		<g>
			<g>
				<path class="st2" d="M84.3,287.9l0-39.6c0-1.6-0.9-3.1-2.2-3.9L50,225.9c-1.4-0.8-3.1-0.8-4.5,0l-34.3,19.8l0,39.6
					c0,1.6,0.9,3.1,2.2,3.9l32.1,18.5c1.4,0.8,3.1,0.8,4.5,0L84.3,287.9z"/>
			</g>
		</g>
		<g>
			<g>
				<path class="st2" d="M157.3,330.1l0-39.6c0-1.6-0.9-3.1-2.2-3.9l-32.1-18.5c-1.4-0.8-3.1-0.8-4.5,0l-34.3,19.8l0,39.6
					c0,1.6,0.9,3.1,2.2,3.9l32.1,18.5c1.4,0.8,3.1,0.8,4.5,0L157.3,330.1z"/>
			</g>
		</g>
		<g>
			<g>
				<path class="st2" d="M230.4,372.3l0-39.6c0-1.6-0.9-3.1-2.2-3.9l-32.1-18.5c-1.4-0.8-3.1-0.8-4.5,0l-34.3,19.8l0,39.6
					c0,1.6,0.9,3.1,2.2,3.9l32.1,18.5c1.4,0.8,3.1,0.8,4.5,0L230.4,372.3z"/>
			</g>
		</g>
		<g>
			<g>
				<path class="st2" d="M303.5,414.5v-39.6c0-1.6-0.9-3.1-2.2-3.9l-32.1-18.5c-1.4-0.8-3.1-0.8-4.5,0l-34.3,19.8v39.6
					c0,1.6,0.9,3.1,2.2,3.9l32.1,18.5c1.4,0.8,3.1,0.8,4.5,0L303.5,414.5z"/>
			</g>
		</g>
		<g>
			<g>
				<polygon class="st2" points="376.6,456.7 376.6,414.5 340,393.4 303.5,414.5 303.5,456.7 340,477.8 				"/>
			</g>
		</g>
		<g>
			<g>
				<polygon class="st2" points="449.6,498.9 449.6,456.7 413.1,435.6 376.6,456.7 376.6,498.9 413.1,520 				"/>
			</g>
		</g>
		<g>
			<g>
				<path class="st2" d="M32.2,203.6l0-39.6c0-1.6-0.9-3.1-2.2-3.9l-32.1-18.5c-1.4-0.8-3.1-0.8-4.5,0l-34.3,19.8l0,39.6
					c0,1.6,0.9,3.1,2.2,3.9l32.1,18.5c1.4,0.8,3.1,0.8,4.5,0L32.2,203.6z"/>
			</g>
		</g>
		<g>
			<g>
				<path class="st2" d="M105.3,245.7l0-39.6c0-1.6-0.9-3.1-2.2-3.9L71,183.8c-1.4-0.8-3.1-0.8-4.5,0l-34.3,19.8l0,39.6
					c0,1.6,0.9,3.1,2.2,3.9l32.1,18.5c1.4,0.8,3.1,0.8,4.5,0L105.3,245.7z"/>
			</g>
		</g>
		<g>
			<g>
				<path class="st2" d="M178.4,287.9l0-39.6c0-1.6-0.9-3.1-2.2-3.9l-32.1-18.5c-1.4-0.8-3.1-0.8-4.5,0l-34.3,19.8l0,39.6
					c0,1.6,0.9,3.1,2.2,3.9l32.1,18.5c1.4,0.8,3.1,0.8,4.5,0L178.4,287.9z"/>
			</g>
		</g>
		<g>
			<g>
				<path class="st2" d="M251.4,330.1l0-39.6c0-1.6-0.9-3.1-2.2-3.9l-32.1-18.5c-1.4-0.8-3.1-0.8-4.5,0l-34.3,19.8l0,39.6
					c0,1.6,0.9,3.1,2.2,3.9l32.1,18.5c1.4,0.8,3.1,0.8,4.5,0L251.4,330.1z"/>
			</g>
		</g>
		<g>
			<g>
				<path class="st2" d="M251.4,342.9l0,26.9c0,1.6,0.9,3.1,2.2,3.9l32.1,18.5c1.4,0.8,3.1,0.8,4.5,0l34.3-19.8v-39.6
					c0-1.6-0.9-3.1-2.2-3.9l-32.1-18.5c-1.4-0.8-3.1-0.8-4.5,0l-34.3,19.8V342.9"/>
			</g>
		</g>
		<g>
			<g>
				<path class="st2" d="M397.6,414.5v-39.6c0-1.6-0.9-3.1-2.2-3.9l-32.1-18.5c-1.4-0.8-3.1-0.8-4.5,0l-34.3,19.8l0,39.6
					c0,1.6,0.9,3.1,2.2,3.9l32.1,18.5c1.4,0.8,3.1,0.8,4.5,0L397.6,414.5z"/>
			</g>
		</g>
		<g>
			<g>
				<polygon class="st2" points="470.7,456.7 470.7,414.5 434.1,393.4 397.6,414.5 397.6,456.7 434.1,477.8 				"/>
			</g>
		</g>
		<g>
			<g>
				<path class="st2" d="M53.2,161.4l0-39.6c0-1.6-0.9-3.1-2.2-3.9L18.9,99.4c-1.4-0.8-3.1-0.8-4.5,0l-34.3,19.8l0,39.6
					c0,1.6,0.9,3.1,2.2,3.9l32.1,18.5c1.4,0.8,3.1,0.8,4.5,0L53.2,161.4z"/>
			</g>
		</g>
		<g>
			<g>
				<path class="st2" d="M126.3,203.6l0-39.6c0-1.6-0.9-3.1-2.2-3.9L92,141.6c-1.4-0.8-3.1-0.8-4.5,0l-34.3,19.8l0,39.6
					c0,1.6,0.9,3.1,2.2,3.9l32.1,18.5c1.4,0.8,3.1,0.8,4.5,0L126.3,203.6z"/>
			</g>
		</g>
		<g>
			<g>
				<path class="st2" d="M199.4,245.7l0-39.6c0-1.6-0.9-3.1-2.2-3.9l-32.1-18.5c-1.4-0.8-3.1-0.8-4.5,0l-34.3,19.8l0,39.6
					c0,1.6,0.9,3.1,2.2,3.9l32.1,18.5c1.4,0.8,3.1,0.8,4.5,0L199.4,245.7z"/>
			</g>
		</g>
		<g>
			<g>
				<path class="st2" d="M272.5,287.9v-39.6c0-1.6-0.9-3.1-2.2-3.9l-32.1-18.5c-1.4-0.8-3.1-0.8-4.5,0l-34.3,19.8l0,39.6
					c0,1.6,0.9,3.1,2.2,3.9l32.1,18.5c1.4,0.8,3.1,0.8,4.5,0L272.5,287.9z"/>
			</g>
		</g>
		<g>
			<g>
				<path class="st2" d="M345.5,330.1v-39.6c0-1.6-0.9-3.1-2.2-3.9l-32.1-18.5c-1.4-0.8-3.1-0.8-4.5,0l-34.3,19.8l0,39.6
					c0,1.6,0.9,3.1,2.2,3.9l32.1,18.5c1.4,0.8,3.1,0.8,4.5,0L345.5,330.1z"/>
			</g>
		</g>
		<g>
			<g>
				<path class="st2" d="M418.6,372.3v-39.6c0-1.6-0.9-3.1-2.2-3.9l-32.1-18.5c-1.4-0.8-3.1-0.8-4.5,0l-34.3,19.8l0,39.6
					c0,1.6,0.9,3.1,2.2,3.9l32.1,18.5c1.4,0.8,3.1,0.8,4.5,0L418.6,372.3z"/>
			</g>
		</g>
		<g>
			<g>
				<path class="st2" d="M491.7,414.5v-39.6c0-1.6-0.9-3.1-2.2-3.9l-32.1-18.5c-1.4-0.8-3.1-0.8-4.5,0l-34.3,19.8l0,39.6
					c0,1.6,0.9,3.1,2.2,3.9l32.1,18.5c1.4,0.8,3.1,0.8,4.5,0L491.7,414.5z"/>
			</g>
		</g>
		<g>
			<g>
				<path class="st2" d="M1.2,77l0-39.6c0-1.6-0.9-3.1-2.2-3.9L-33.1,15c-1.4-0.8-3.1-0.8-4.5,0l-34.3,19.8l0,39.6
					c0,1.6,0.9,3.1,2.2,3.9l32.1,18.5c1.4,0.8,3.1,0.8,4.5,0L1.2,77z"/>
			</g>
		</g>
		<g>
			<g>
				<path class="st2" d="M74.2,119.2l0-39.6c0-1.6-0.9-3.1-2.2-3.9L40,57.2c-1.4-0.8-3.1-0.8-4.5,0L1.2,77l0,39.6
					c0,1.6,0.9,3.1,2.2,3.9L35.5,139c1.4,0.8,3.1,0.8,4.5,0L74.2,119.2z"/>
			</g>
		</g>
		<g>
			<g>
				<path class="st2" d="M147.3,161.4l0-39.6c0-1.6-0.9-3.1-2.2-3.9L113,99.4c-1.4-0.8-3.1-0.8-4.5,0l-34.3,19.8l0,39.6
					c0,1.6,0.9,3.1,2.2,3.9l32.1,18.5c1.4,0.8,3.1,0.8,4.5,0L147.3,161.4z"/>
			</g>
		</g>
		<g>
			<g>
				<path class="st2" d="M220.4,203.6V164c0-1.6-0.9-3.1-2.2-3.9l-32.1-18.5c-1.4-0.8-3.1-0.8-4.5,0l-34.3,19.8l0,39.6
					c0,1.6,0.9,3.1,2.2,3.9l32.1,18.5c1.4,0.8,3.1,0.8,4.5,0L220.4,203.6z"/>
			</g>
		</g>
		<g>
			<g>
				<path class="st2" d="M293.5,245.7l0-39.6c0-1.6-0.9-3.1-2.2-3.9l-32.1-18.5c-1.4-0.8-3.1-0.8-4.5,0l-34.3,19.8l0,39.6
					c0,1.6,0.9,3.1,2.2,3.9l32.1,18.5c1.4,0.8,3.1,0.8,4.5,0L293.5,245.7z"/>
			</g>
		</g>
		<g>
			<g>
				<path class="st2" d="M366.5,287.9v-39.6c0-1.6-0.9-3.1-2.2-3.9l-32.1-18.5c-1.4-0.8-3.1-0.8-4.5,0l-34.3,19.8v39.6
					c0,1.6,0.9,3.1,2.2,3.9l32.1,18.5c1.4,0.8,3.1,0.8,4.5,0L366.5,287.9z"/>
			</g>
		</g>
		<g>
			<g>
				<path class="st2" d="M439.6,330.1v-39.6c0-1.6-0.9-3.1-2.2-3.9l-32.1-18.5c-1.4-0.8-3.1-0.8-4.5,0l-34.3,19.8l0,39.6
					c0,1.6,0.9,3.1,2.2,3.9l32.1,18.5c1.4,0.8,3.1,0.8,4.5,0L439.6,330.1z"/>
			</g>
		</g>
		<g>
			<g>
				<path class="st2" d="M512.7,372.3l0-39.6c0-1.6-0.9-3.1-2.2-3.9l-32.1-18.5c-1.4-0.8-3.1-0.8-4.5,0l-34.3,19.8l0,39.6
					c0,1.6,0.9,3.1,2.2,3.9l32.1,18.5c1.4,0.8,3.1,0.8,4.5,0L512.7,372.3z"/>
			</g>
		</g>
		<g>
			<g>
				<path class="st2" d="M22.2,34.8l0-39.6c0-1.6-0.9-3.1-2.2-3.9l-32.1-18.5c-1.4-0.8-3.1-0.8-4.5,0L-50.9-7.4l0,39.6
					c0,1.6,0.9,3.1,2.2,3.9l32.1,18.5c1.4,0.8,3.1,0.8,4.5,0L22.2,34.8z"/>
			</g>
		</g>
		<g>
			<g>
				<path class="st2" d="M95.3,77l0-39.6c0-1.6-0.9-3.1-2.2-3.9L61,15c-1.4-0.8-3.1-0.8-4.5,0L22.2,34.8l0,39.6
					c0,1.6,0.9,3.1,2.2,3.9l32.1,18.5c1.4,0.8,3.1,0.8,4.5,0L95.3,77z"/>
			</g>
		</g>
		<g>
			<g>
				<path class="st2" d="M168.3,119.2l0-39.6c0-1.6-0.9-3.1-2.2-3.9L134,57.2c-1.4-0.8-3.1-0.8-4.5,0L95.3,77l0,39.6
					c0,1.6,0.9,3.1,2.2,3.9l32.1,18.5c1.4,0.8,3.1,0.8,4.5,0L168.3,119.2z"/>
			</g>
		</g>
		<g>
			<g>
				<path class="st2" d="M241.4,161.4l0-39.6c0-1.6-0.9-3.1-2.2-3.9l-32.1-18.5c-1.4-0.8-3.1-0.8-4.5,0l-34.3,19.8l0,39.6
					c0,1.6,0.9,3.1,2.2,3.9l32.1,18.5c1.4,0.8,3.1,0.8,4.5,0L241.4,161.4z"/>
			</g>
		</g>
		<g>
			<g>
				<path class="st2" d="M314.5,203.6l0-39.6c0-1.6-0.9-3.1-2.2-3.9l-32.1-18.5c-1.4-0.8-3.1-0.8-4.5,0l-34.3,19.8l0,39.6
					c0,1.6,0.9,3.1,2.2,3.9l32.1,18.5c1.4,0.8,3.1,0.8,4.5,0L314.5,203.6z"/>
			</g>
		</g>
		<g>
			<g>
				<path class="st2" d="M387.6,245.7l0-39.6c0-1.6-0.9-3.1-2.2-3.9l-32.1-18.5c-1.4-0.8-3.1-0.8-4.5,0l-34.3,19.8v39.6
					c0,1.6,0.9,3.1,2.2,3.9l32.1,18.5c1.4,0.8,3.1,0.8,4.5,0L387.6,245.7z"/>
			</g>
		</g>
		<g>
			<g>
				<path class="st2" d="M460.6,287.9v-39.6c0-1.6-0.9-3.1-2.2-3.9l-32.1-18.5c-1.4-0.8-3.1-0.8-4.5,0l-34.3,19.8v39.6
					c0,1.6,0.9,3.1,2.2,3.9l32.1,18.5c1.4,0.8,3.1,0.8,4.5,0L460.6,287.9z"/>
			</g>
		</g>
		<g>
			<g>
				<path class="st2" d="M43.2-7.4l0-39.6c0-1.6-0.9-3.1-2.2-3.9L8.9-69.4c-1.4-0.8-3.1-0.8-4.5,0l-34.3,19.8l0,39.6
					c0,1.6,0.9,3.1,2.2,3.9L4.4,12.4c1.4,0.8,3.1,0.8,4.5,0L43.2-7.4z"/>
			</g>
		</g>
		<g>
			<g>
				<path class="st2" d="M116.3,34.8l0-39.6c0-1.6-0.9-3.1-2.2-3.9L82-27.2c-1.4-0.8-3.1-0.8-4.5,0L43.2-7.4l0,39.6
					c0,1.6,0.9,3.1,2.2,3.9l32.1,18.5c1.4,0.8,3.1,0.8,4.5,0L116.3,34.8z"/>
			</g>
		</g>
		<g>
			<g>
				<path class="st2" d="M189.4,77l0-39.6c0-1.6-0.9-3.1-2.2-3.9L155.1,15c-1.4-0.8-3.1-0.8-4.5,0l-34.3,19.8l0,39.6
					c0,1.6,0.9,3.1,2.2,3.9l32.1,18.5c1.4,0.8,3.1,0.8,4.5,0L189.4,77z"/>
			</g>
		</g>
		<g>
			<g>
				<path class="st2" d="M262.4,119.2l0-39.6c0-1.6-0.9-3.1-2.2-3.9l-32.1-18.5c-1.4-0.8-3.1-0.8-4.5,0L189.4,77l0,39.6
					c0,1.6,0.9,3.1,2.2,3.9l32.1,18.5c1.4,0.8,3.1,0.8,4.5,0L262.4,119.2z"/>
			</g>
		</g>
		<g>
			<g>
				<path class="st2" d="M335.5,161.4l0-39.6c0-1.6-0.9-3.1-2.2-3.9l-32.1-18.5c-1.4-0.8-3.1-0.8-4.5,0l-34.3,19.8v39.6
					c0,1.6,0.9,3.1,2.2,3.9l32.1,18.5c1.4,0.8,3.1,0.8,4.5,0L335.5,161.4z"/>
			</g>
		</g>
		<g>
			<g>
				<path class="st2" d="M408.6,203.6l0-39.6c0-1.6-0.9-3.1-2.2-3.9l-32.1-18.5c-1.4-0.8-3.1-0.8-4.5,0l-34.3,19.8V201
					c0,1.6,0.9,3.1,2.2,3.9l32.1,18.5c1.4,0.8,3.1,0.8,4.5,0L408.6,203.6z"/>
			</g>
		</g>
		<g>
			<g>
				<path class="st2" d="M481.6,245.7v-39.6c0-1.6-0.9-3.1-2.2-3.9l-32.1-18.5c-1.4-0.8-3.1-0.8-4.5,0l-34.3,19.8v39.6
					c0,1.6,0.9,3.1,2.2,3.9l32.1,18.5c1.4,0.8,3.1,0.8,4.5,0L481.6,245.7z"/>
			</g>
		</g>
		<g>
			<g>
				<path class="st2" d="M137.3-7.4l0-39.6c0-1.6-0.9-3.1-2.2-3.9L103-69.4c-1.4-0.8-3.1-0.8-4.5,0L64.2-49.6l0,39.6
					c0,1.6,0.9,3.1,2.2,3.9l32.1,18.5c1.4,0.8,3.1,0.8,4.5,0L137.3-7.4z"/>
			</g>
		</g>
		<g>
			<g>
				<path class="st2" d="M210.4,34.8l0-39.6c0-1.6-0.9-3.1-2.2-3.9l-32.1-18.5c-1.4-0.8-3.1-0.8-4.5,0L137.3-7.4l0,39.6
					c0,1.6,0.9,3.1,2.2,3.9l32.1,18.5c1.4,0.8,3.1,0.8,4.5,0L210.4,34.8z"/>
			</g>
		</g>
		<g>
			<g>
				<path class="st2" d="M283.4,77V37.4c0-1.6-0.9-3.1-2.2-3.9L249.1,15c-1.4-0.8-3.1-0.8-4.5,0l-34.3,19.8l0,39.6
					c0,1.6,0.9,3.1,2.2,3.9l32.1,18.5c1.4,0.8,3.1,0.8,4.5,0L283.4,77z"/>
			</g>
		</g>
		<g>
			<g>
				<path class="st2" d="M356.5,119.2l0-39.6c0-1.6-0.9-3.1-2.2-3.9l-32.1-18.5c-1.4-0.8-3.1-0.8-4.5,0L283.4,77v39.6
					c0,1.6,0.9,3.1,2.2,3.9l32.1,18.5c1.4,0.8,3.1,0.8,4.5,0L356.5,119.2z"/>
			</g>
		</g>
		<g>
			<g>
				<path class="st2" d="M429.6,161.4l0-39.6c0-1.6-0.9-3.1-2.2-3.9l-32.1-18.5c-1.4-0.8-3.1-0.8-4.5,0l-34.3,19.8v39.6
					c0,1.6,0.9,3.1,2.2,3.9l32.1,18.5c1.4,0.8,3.1,0.8,4.5,0L429.6,161.4z"/>
			</g>
		</g>
		<g>
			<g>
				<path class="st2" d="M502.7,203.6l0-39.6c0-1.6-0.9-3.1-2.2-3.9l-32.1-18.5c-1.4-0.8-3.1-0.8-4.5,0l-34.3,19.8V201
					c0,1.6,0.9,3.1,2.2,3.9l32.1,18.5c1.4,0.8,3.1,0.8,4.5,0L502.7,203.6z"/>
			</g>
		</g>
		<g>
			<g>
				<path class="st2" d="M231.4-7.4l0-39.6c0-1.6-0.9-3.1-2.2-3.9l-32.1-18.5c-1.4-0.8-3.1-0.8-4.5,0l-34.3,19.8l0,39.6
					c0,1.6,0.9,3.1,2.2,3.9l32.1,18.5c1.4,0.8,3.1,0.8,4.5,0L231.4-7.4z"/>
			</g>
		</g>
		<g>
			<g>
				<path class="st2" d="M304.5,34.8V-4.8c0-1.6-0.9-3.1-2.2-3.9l-32.1-18.5c-1.4-0.8-3.1-0.8-4.5,0L231.4-7.4v39.6
					c0,1.6,0.9,3.1,2.2,3.9l32.1,18.5c1.4,0.8,3.1,0.8,4.5,0L304.5,34.8z"/>
			</g>
		</g>
		<g>
			<g>
				<path class="st2" d="M377.5,77V37.4c0-1.6-0.9-3.1-2.2-3.9L343.2,15c-1.4-0.8-3.1-0.8-4.5,0l-34.3,19.8l0,39.6
					c0,1.6,0.9,3.1,2.2,3.9l32.1,18.5c1.4,0.8,3.1,0.8,4.5,0L377.5,77z"/>
			</g>
		</g>
		<g>
			<g>
				<path class="st2" d="M450.6,119.2l0-39.6c0-1.6-0.9-3.1-2.2-3.9l-32.1-18.5c-1.4-0.8-3.1-0.8-4.5,0L377.5,77v39.6
					c0,1.6,0.9,3.1,2.2,3.9l32.1,18.5c1.4,0.8,3.1,0.8,4.5,0L450.6,119.2z"/>
			</g>
		</g>
		<g>
			<g>
				<path class="st2" d="M523.7,161.4v-39.6c0-1.6-0.9-3.1-2.2-3.9l-32.1-18.5c-1.4-0.8-3.1-0.8-4.5,0l-34.3,19.8v39.6
					c0,1.6,0.9,3.1,2.2,3.9l32.1,18.5c1.4,0.8,3.1,0.8,4.5,0L523.7,161.4z"/>
			</g>
		</g>
		<g>
			<g>
				<path class="st2" d="M325.5-7.4V-47c0-1.6-0.9-3.1-2.2-3.9l-32.1-18.5c-1.4-0.8-3.1-0.8-4.5,0l-34.3,19.8l0,39.6
					c0,1.6,0.9,3.1,2.2,3.9l32.1,18.5c1.4,0.8,3.1,0.8,4.5,0L325.5-7.4z"/>
			</g>
		</g>
		<g>
			<g>
				<path class="st2" d="M398.5,34.8V-4.8c0-1.6-0.9-3.1-2.2-3.9l-32.1-18.5c-1.4-0.8-3.1-0.8-4.5,0L325.5-7.4l0,39.6
					c0,1.6,0.9,3.1,2.2,3.9l32.1,18.5c1.4,0.8,3.1,0.8,4.5,0L398.5,34.8z"/>
			</g>
		</g>
		<g>
			<g>
				<path class="st2" d="M471.6,77l0-39.6c0-1.6-0.9-3.1-2.2-3.9L437.3,15c-1.4-0.8-3.1-0.8-4.5,0l-34.3,19.8l0,39.6
					c0,1.6,0.9,3.1,2.2,3.9l32.1,18.5c1.4,0.8,3.1,0.8,4.5,0L471.6,77z"/>
			</g>
		</g>
		<g>
			<g>
				<path class="st2" d="M419.6-7.4V-47c0-1.6-0.9-3.1-2.2-3.9l-32.1-18.5c-1.4-0.8-3.1-0.8-4.5,0l-34.3,19.8l0,39.6
					c0,1.6,0.9,3.1,2.2,3.9l32.1,18.5c1.4,0.8,3.1,0.8,4.5,0L419.6-7.4z"/>
			</g>
		</g>
		<g>
			<g>
				<path class="st2" d="M492.6,34.8V-4.8c0-1.6-0.9-3.1-2.2-3.9l-32.1-18.5c-1.4-0.8-3.1-0.8-4.5,0L419.6-7.4l0,39.6
					c0,1.6,0.9,3.1,2.2,3.9l32.1,18.5c1.4,0.8,3.1,0.8,4.5,0L492.6,34.8z"/>
			</g>
		</g>
		<g>
			<g>
				<path class="st2" d="M513.6-7.4l0-39.6c0-1.6-0.9-3.1-2.2-3.9l-32.1-18.5c-1.4-0.8-3.1-0.8-4.5,0l-34.3,19.8l0,39.6
					c0,1.6,0.9,3.1,2.2,3.9l32.1,18.5c1.4,0.8,3.1,0.8,4.5,0L513.6-7.4z"/>
			</g>
		</g>
	</g>
</g>
<g>
	<defs>
		<rect id="SVGID_00000038384628513745881380000005199134174621847946_" x="504.5" width="450" height="450"/>
	</defs>
	<clipPath id="SVGID_00000180338530642787021180000015377421616287109823_">
		<use xlink:href="#SVGID_00000038384628513745881380000005199134174621847946_"  style="overflow:visible;"/>
	</clipPath>
	<g style="clip-path:url(#SVGID_00000180338530642787021180000015377421616287109823_);">
		<path class="st5" d="M868.1-22.5l-277.1,0c-4.9,0-9.5,2.6-11.9,6.9L444,218.1c-2.5,4.3-2.5,9.5,0,13.8l135,233.7
			c2.5,4.3,7,6.9,11.9,6.9l277.1,0c4.9,0,9.5-2.6,11.9-6.9l135-233.7c2.5-4.3,2.5-9.5,0-13.8L880-15.6
			C877.6-19.9,873-22.5,868.1-22.5z"/>
		<path class="st5" d="M876.3-37.2l-293.5,0c-5.2,0-10,2.8-12.7,7.3L427.2,217.7c-2.6,4.5-2.6,10.1,0,14.6l142.9,247.6
			c2.6,4.5,7.4,7.3,12.7,7.3l293.5,0c5.2,0,10-2.8,12.7-7.3l142.9-247.6c2.6-4.5,2.6-10.1,0-14.6L888.9-29.9
			C886.3-34.4,881.5-37.2,876.3-37.2z"/>
		<path class="st5" d="M884.5-51.8l-309.9,0c-5.5,0-10.6,2.9-13.4,7.7L410.3,217.3c-2.8,4.8-2.8,10.7,0,15.4l150.9,261.4
			c2.8,4.8,7.8,7.7,13.4,7.7l309.9,0c5.5,0,10.6-2.9,13.4-7.7l150.9-261.4c2.8-4.8,2.8-10.7,0-15.4L897.8-44.1
			C895.1-48.9,890-51.8,884.5-51.8z"/>
		<path class="st5" d="M892.7-66.5l-326.3,0c-5.8,0-11.2,3.1-14.1,8.1L393.4,216.9c-2.9,5-2.9,11.2,0,16.2l158.9,275.2
			c2.9,5,8.3,8.1,14.1,8.1l326.3,0c5.8,0,11.2-3.1,14.1-8.1l158.9-275.2c2.9-5,2.9-11.2,0-16.2L906.7-58.3
			C903.8-63.4,898.5-66.5,892.7-66.5z"/>
		<path class="st5" d="M900.9-81.1l-342.7,0c-6.1,0-11.7,3.3-14.8,8.5l-166.9,289c-3,5.3-3,11.8,0,17.1l166.9,289
			c3,5.3,8.7,8.5,14.8,8.5l342.7,0c6.1,0,11.7-3.3,14.8-8.5l166.9-289c3-5.3,3-11.8,0-17.1l-166.9-289
			C912.6-77.8,907-81.1,900.9-81.1z"/>
	</g>
</g>
</svg>
