<?xml version="1.0" encoding="UTF-8"?><svg id="Capa_1" xmlns="http://www.w3.org/2000/svg" viewBox="0 0 4285.16 520"><defs><style>.cls-1{fill:#bdfbba;}</style></defs><path class="cls-1" d="m2661.76,122.69V11.79h17.56v110.9h-17.56Z"/><path class="cls-1" d="m2700.61,122.69V42.16h16.08v17.42l-2.08-2.68c1.68-5.45,4.76-9.58,9.23-12.35,4.46-2.78,9.58-4.17,15.33-4.17,6.45,0,12.18,1.71,17.19,5.13,5.01,3.42,8.36,7.96,10.05,13.62l-4.76.45c2.38-6.45,6.03-11.26,10.94-14.44,4.91-3.17,10.54-4.76,16.9-4.76,5.56,0,10.59,1.29,15.11,3.87,4.51,2.59,8.11,6.16,10.8,10.72,2.68,4.56,4.02,9.78,4.02,15.63v52.1h-16.82v-47.49c0-4.07-.72-7.52-2.16-10.35-1.44-2.83-3.42-5.01-5.96-6.55-2.53-1.54-5.48-2.31-8.86-2.31s-6.35.77-8.93,2.31c-2.58,1.54-4.61,3.75-6.1,6.62-1.49,2.88-2.23,6.31-2.23,10.27v47.49h-16.67v-47.49c0-4.07-.72-7.52-2.16-10.35-1.44-2.83-3.42-5.01-5.96-6.55-2.53-1.54-5.53-2.31-9.01-2.31s-6.35.77-8.93,2.31c-2.58,1.54-4.59,3.75-6.03,6.62-1.44,2.88-2.16,6.31-2.16,10.27v47.49h-16.82Z"/><path class="cls-1" d="m2837.42,152.47V42.16h16.08v16.68l-1.94-3.87c2.98-4.56,6.94-8.14,11.91-10.72,4.96-2.58,10.62-3.87,16.97-3.87,7.64,0,14.51,1.84,20.62,5.5,6.1,3.67,10.92,8.69,14.44,15.04,3.52,6.35,5.28,13.5,5.28,21.44s-1.76,15.09-5.28,21.44c-3.52,6.35-8.31,11.39-14.37,15.11-6.06,3.72-12.95,5.58-20.69,5.58-6.25,0-11.94-1.29-17.05-3.87-5.11-2.58-9.06-6.3-11.84-11.16l2.68-3.13v46.15h-16.82Zm41.39-43.62c4.76,0,8.98-1.14,12.65-3.42,3.67-2.28,6.57-5.43,8.71-9.45,2.13-4.02,3.2-8.56,3.2-13.62s-1.06-9.58-3.2-13.55c-2.13-3.97-5.04-7.1-8.71-9.38-3.67-2.28-7.89-3.42-12.65-3.42s-8.86,1.14-12.58,3.42c-3.72,2.28-6.65,5.41-8.78,9.38-2.13,3.97-3.2,8.49-3.2,13.55s1.06,9.6,3.2,13.62c2.13,4.02,5.06,7.17,8.78,9.45,3.73,2.28,7.91,3.42,12.58,3.42Z"/><path class="cls-1" d="m2961.28,124.48c-5.46,0-10.25-.97-14.37-2.9-4.12-1.94-7.32-4.61-9.61-8.04-2.28-3.42-3.42-7.47-3.42-12.13,0-4.37.97-8.29,2.91-11.76,1.93-3.47,4.94-6.4,9-8.79,4.07-2.38,9.18-4.07,15.33-5.06l27.98-4.61v13.25l-24.71,4.32c-4.46.79-7.74,2.21-9.83,4.24-2.08,2.03-3.12,4.64-3.12,7.81s1.17,5.58,3.5,7.52c2.33,1.94,5.33,2.9,9,2.9,4.56,0,8.56-.99,11.99-2.97,3.42-1.99,6.08-4.64,7.96-7.97,1.88-3.32,2.83-7.02,2.83-11.09v-20.69c0-3.97-1.47-7.22-4.39-9.75-2.93-2.53-6.83-3.8-11.69-3.8-4.46,0-8.36,1.17-11.68,3.5-3.33,2.33-5.78,5.33-7.37,9l-13.99-6.99c1.49-3.97,3.92-7.47,7.29-10.49,3.37-3.03,7.32-5.38,11.84-7.07,4.51-1.69,9.3-2.53,14.37-2.53,6.35,0,11.99,1.19,16.9,3.57,4.91,2.38,8.73,5.68,11.46,9.9,2.73,4.22,4.09,9.1,4.09,14.66v54.18h-16.08v-14.59l3.42.45c-1.88,3.27-4.29,6.1-7.22,8.49-2.93,2.38-6.25,4.22-9.97,5.51-3.72,1.29-7.87,1.93-12.43,1.93Z"/><path class="cls-1" d="m3061.46,124.48c-8.04,0-15.16-1.86-21.36-5.58-6.21-3.72-11.12-8.76-14.74-15.11-3.62-6.35-5.44-13.55-5.44-21.59s1.79-15.08,5.36-21.44c3.57-6.35,8.49-11.34,14.74-14.96,6.25-3.62,13.4-5.43,21.44-5.43,5.46,0,10.57.96,15.33,2.9,4.76,1.93,8.9,4.59,12.43,7.96,3.52,3.37,6.13,7.29,7.82,11.76l-14.74,6.85c-1.69-4.17-4.39-7.52-8.11-10.05-3.72-2.53-7.96-3.8-12.73-3.8s-8.66,1.12-12.28,3.35c-3.62,2.23-6.48,5.36-8.56,9.38-2.08,4.02-3.12,8.56-3.12,13.62s1.04,9.6,3.12,13.62c2.08,4.02,4.94,7.17,8.56,9.45,3.62,2.28,7.72,3.42,12.28,3.42,4.86,0,9.1-1.27,12.73-3.8,3.62-2.53,6.33-5.93,8.11-10.2l14.74,7c-1.59,4.27-4.15,8.11-7.67,11.53-3.52,3.42-7.67,6.13-12.43,8.11-4.76,1.98-9.92,2.98-15.48,2.98Z"/><path class="cls-1" d="m3148.25,123.59c-8.44,0-14.99-2.38-19.65-7.15-4.67-4.76-7-11.46-7-20.1v-39h-14.14v-15.18h2.23c3.77,0,6.7-1.09,8.78-3.27,2.08-2.18,3.12-5.16,3.12-8.93v-6.25h16.82v18.46h18.31v15.18h-18.31v38.26c0,2.78.45,5.13,1.34,7.07.89,1.93,2.33,3.42,4.32,4.46,1.98,1.04,4.56,1.56,7.74,1.56.79,0,1.68-.05,2.68-.15.99-.1,1.94-.2,2.83-.3v14.44c-1.39.2-2.93.4-4.61.6-1.69.2-3.18.3-4.47.3Z"/><path class="cls-1" d="m3182.79,122.69V57.34h-14.89v-15.18h14.89v-4.17c0-6.05,1.24-11.14,3.72-15.26,2.48-4.11,5.93-7.27,10.35-9.45,4.41-2.18,9.5-3.27,15.26-3.27,1.09,0,2.33.07,3.72.22,1.39.15,2.53.32,3.42.52v14.59c-.8-.2-1.69-.32-2.68-.37-.99-.05-1.79-.08-2.38-.08-4.47,0-8.04,1.02-10.72,3.05-2.68,2.03-4.02,5.38-4.02,10.05v4.17h18.46v15.18h-18.46v65.35h-16.68Z"/><path class="cls-1" d="m3262.28,124.48c-6.06,0-11.37-1.37-15.93-4.09-4.56-2.73-8.11-6.55-10.64-11.46-2.53-4.91-3.8-10.59-3.8-17.05v-49.72h16.82v48.23c0,3.67.74,6.9,2.23,9.68,1.49,2.78,3.57,4.94,6.26,6.48,2.68,1.54,5.75,2.31,9.23,2.31s6.7-.79,9.38-2.38c2.68-1.59,4.79-3.82,6.33-6.7,1.54-2.88,2.31-6.26,2.31-10.12v-47.49h16.67v80.54h-15.93v-15.78l1.79,2.08c-1.89,4.96-5.01,8.78-9.38,11.46-4.37,2.68-9.48,4.02-15.33,4.02Z"/><path class="cls-1" d="m3320.78,122.69V10h16.82v112.69h-16.82Z"/><path class="cls-1" d="m3384.95,122.69V11.79h16.37l41.68,57.76h-8.19l40.93-57.76h16.38v110.9h-17.42V32.48l6.55,1.79-41.83,57.16h-1.79l-40.94-57.16,5.8-1.79v90.21h-17.56Z"/><path class="cls-1" d="m3537.53,124.48c-5.46,0-10.25-.97-14.37-2.9-4.12-1.94-7.32-4.61-9.61-8.04-2.28-3.42-3.42-7.47-3.42-12.13,0-4.37.97-8.29,2.91-11.76,1.93-3.47,4.94-6.4,9-8.79,4.07-2.38,9.18-4.07,15.33-5.06l27.98-4.61v13.25l-24.71,4.32c-4.46.79-7.74,2.21-9.83,4.24-2.08,2.03-3.12,4.64-3.12,7.81s1.17,5.58,3.5,7.52c2.33,1.94,5.33,2.9,9,2.9,4.56,0,8.56-.99,11.99-2.97,3.42-1.99,6.08-4.64,7.96-7.97,1.88-3.32,2.83-7.02,2.83-11.09v-20.69c0-3.97-1.47-7.22-4.39-9.75-2.93-2.53-6.83-3.8-11.69-3.8-4.46,0-8.36,1.17-11.68,3.5-3.33,2.33-5.78,5.33-7.37,9l-13.99-6.99c1.49-3.97,3.92-7.47,7.29-10.49,3.37-3.03,7.32-5.38,11.84-7.07,4.51-1.69,9.3-2.53,14.37-2.53,6.35,0,11.99,1.19,16.9,3.57,4.91,2.38,8.73,5.68,11.46,9.9,2.73,4.22,4.09,9.1,4.09,14.66v54.18h-16.08v-14.59l3.42.45c-1.88,3.27-4.29,6.1-7.22,8.49-2.93,2.38-6.25,4.22-9.97,5.51-3.72,1.29-7.87,1.93-12.43,1.93Z"/><path class="cls-1" d="m3599.46,122.69V42.16h16.08v16.23l-1.49-2.38c1.79-5.26,4.66-9.05,8.64-11.39,3.97-2.33,8.73-3.5,14.29-3.5h4.91v15.33h-6.99c-5.56,0-10.05,1.71-13.47,5.14-3.42,3.42-5.14,8.31-5.14,14.66v46.45h-16.82Z"/><path class="cls-1" d="m3653.35,122.69V10h16.82v75.47l-6.55-1.64,40.35-41.68h20.99l-30.37,32.31,31.71,48.23h-19.35l-28.28-42.72,9.97-1.34-23.82,25.31,5.36-11.17v29.92h-16.82Z"/><path class="cls-1" d="m3774.08,124.48c-8.04,0-15.16-1.86-21.36-5.58-6.21-3.72-11.04-8.78-14.52-15.18-3.47-6.4-5.21-13.57-5.21-21.51s1.76-15.33,5.29-21.58c3.52-6.26,8.26-11.19,14.22-14.81,5.96-3.62,12.7-5.43,20.25-5.43,6.05,0,11.46,1.04,16.23,3.12,4.76,2.08,8.78,4.94,12.06,8.56,3.27,3.62,5.78,7.77,7.52,12.43,1.74,4.67,2.61,9.63,2.61,14.89,0,1.29-.05,2.63-.15,4.02-.1,1.39-.3,2.68-.59,3.87h-64.16v-13.4h54.63l-8.03,6.11c.99-4.86.67-9.2-.97-13.03-1.64-3.82-4.12-6.85-7.45-9.08-3.32-2.23-7.22-3.35-11.68-3.35s-8.44,1.12-11.91,3.35c-3.47,2.23-6.15,5.41-8.03,9.53-1.89,4.12-2.63,9.11-2.23,14.96-.5,5.46.27,10.22,2.31,14.29,2.03,4.07,4.92,7.25,8.64,9.53,3.72,2.28,7.96,3.42,12.73,3.42s9-1.09,12.43-3.27c3.42-2.18,6.13-5.01,8.11-8.49l13.69,6.7c-1.59,3.78-4.04,7.17-7.37,10.2-3.33,3.03-7.3,5.41-11.91,7.15-4.61,1.74-9.65,2.61-15.11,2.61Z"/><path class="cls-1" d="m3862.36,123.59c-8.44,0-14.99-2.38-19.65-7.15-4.67-4.76-7-11.46-7-20.1v-39h-14.14v-15.18h2.23c3.77,0,6.7-1.09,8.78-3.27,2.08-2.18,3.12-5.16,3.12-8.93v-6.25h16.82v18.46h18.31v15.18h-18.31v38.26c0,2.78.45,5.13,1.34,7.07.89,1.93,2.33,3.42,4.32,4.46,1.98,1.04,4.56,1.56,7.74,1.56.79,0,1.68-.05,2.68-.15.99-.1,1.94-.2,2.83-.3v14.44c-1.39.2-2.93.4-4.61.6-1.69.2-3.18.3-4.47.3Z"/><path class="cls-1" d="m3887.81,152.47V42.16h16.08v16.68l-1.94-3.87c2.98-4.56,6.94-8.14,11.91-10.72,4.96-2.58,10.62-3.87,16.97-3.87,7.64,0,14.51,1.84,20.62,5.5,6.1,3.67,10.92,8.69,14.44,15.04,3.52,6.35,5.28,13.5,5.28,21.44s-1.76,15.09-5.28,21.44c-3.52,6.35-8.31,11.39-14.37,15.11-6.06,3.72-12.95,5.58-20.69,5.58-6.25,0-11.94-1.29-17.05-3.87-5.11-2.58-9.06-6.3-11.84-11.16l2.68-3.13v46.15h-16.82Zm41.39-43.62c4.76,0,8.98-1.14,12.65-3.42,3.67-2.28,6.57-5.43,8.71-9.45,2.13-4.02,3.2-8.56,3.2-13.62s-1.06-9.58-3.2-13.55c-2.13-3.97-5.04-7.1-8.71-9.38-3.67-2.28-7.89-3.42-12.65-3.42s-8.86,1.14-12.58,3.42c-3.72,2.28-6.65,5.41-8.78,9.38-2.13,3.97-3.2,8.49-3.2,13.55s1.06,9.6,3.2,13.62c2.13,4.02,5.06,7.17,8.78,9.45,3.73,2.28,7.91,3.42,12.58,3.42Z"/><path class="cls-1" d="m3987.55,122.69V10h16.82v112.69h-16.82Z"/><path class="cls-1" d="m4048.14,124.48c-5.46,0-10.25-.97-14.37-2.9-4.12-1.94-7.32-4.61-9.61-8.04-2.28-3.42-3.42-7.47-3.42-12.13,0-4.37.97-8.29,2.91-11.76,1.93-3.47,4.94-6.4,9-8.79,4.07-2.38,9.18-4.07,15.33-5.06l27.98-4.61v13.25l-24.71,4.32c-4.46.79-7.74,2.21-9.83,4.24-2.08,2.03-3.12,4.64-3.12,7.81s1.17,5.58,3.5,7.52c2.33,1.94,5.33,2.9,9,2.9,4.56,0,8.56-.99,11.99-2.97,3.42-1.99,6.08-4.64,7.96-7.97,1.88-3.32,2.83-7.02,2.83-11.09v-20.69c0-3.97-1.47-7.22-4.39-9.75-2.93-2.53-6.83-3.8-11.69-3.8-4.46,0-8.36,1.17-11.68,3.5-3.33,2.33-5.78,5.33-7.37,9l-13.99-6.99c1.49-3.97,3.92-7.47,7.29-10.49,3.37-3.03,7.32-5.38,11.84-7.07,4.51-1.69,9.3-2.53,14.37-2.53,6.35,0,11.99,1.19,16.9,3.57,4.91,2.38,8.73,5.68,11.46,9.9,2.73,4.22,4.09,9.1,4.09,14.66v54.18h-16.08v-14.59l3.42.45c-1.88,3.27-4.29,6.1-7.22,8.49-2.93,2.38-6.25,4.22-9.97,5.51-3.72,1.29-7.87,1.93-12.43,1.93Z"/><path class="cls-1" d="m4148.33,124.48c-8.04,0-15.16-1.86-21.36-5.58-6.21-3.72-11.12-8.76-14.74-15.11-3.62-6.35-5.44-13.55-5.44-21.59s1.79-15.08,5.36-21.44c3.57-6.35,8.49-11.34,14.74-14.96,6.25-3.62,13.4-5.43,21.44-5.43,5.46,0,10.57.96,15.33,2.9,4.76,1.93,8.9,4.59,12.43,7.96,3.52,3.37,6.13,7.29,7.82,11.76l-14.74,6.85c-1.69-4.17-4.39-7.52-8.11-10.05-3.72-2.53-7.96-3.8-12.73-3.8s-8.66,1.12-12.28,3.35c-3.62,2.23-6.48,5.36-8.56,9.38-2.08,4.02-3.12,8.56-3.12,13.62s1.04,9.6,3.12,13.62c2.08,4.02,4.94,7.17,8.56,9.45,3.62,2.28,7.72,3.42,12.28,3.42,4.86,0,9.1-1.27,12.73-3.8,3.62-2.53,6.33-5.93,8.11-10.2l14.74,7c-1.59,4.27-4.15,8.11-7.67,11.53-3.52,3.42-7.67,6.13-12.43,8.11-4.76,1.98-9.92,2.98-15.48,2.98Z"/><path class="cls-1" d="m4238.09,124.48c-8.04,0-15.16-1.86-21.36-5.58-6.21-3.72-11.04-8.78-14.52-15.18s-5.21-13.57-5.21-21.51,1.76-15.33,5.29-21.58c3.52-6.26,8.26-11.19,14.22-14.81,5.96-3.62,12.7-5.43,20.25-5.43,6.05,0,11.46,1.04,16.23,3.12,4.76,2.08,8.78,4.94,12.06,8.56,3.27,3.62,5.78,7.77,7.52,12.43,1.74,4.67,2.61,9.63,2.61,14.89,0,1.29-.05,2.63-.15,4.02-.1,1.39-.3,2.68-.59,3.87h-64.16v-13.4h54.63l-8.03,6.11c.99-4.86.67-9.2-.97-13.03-1.64-3.82-4.12-6.85-7.45-9.08-3.32-2.23-7.22-3.35-11.68-3.35s-8.44,1.12-11.91,3.35c-3.47,2.23-6.15,5.41-8.03,9.53-1.89,4.12-2.63,9.11-2.23,14.96-.5,5.46.27,10.22,2.31,14.29,2.03,4.07,4.92,7.25,8.64,9.53,3.72,2.28,7.96,3.42,12.73,3.42s9-1.09,12.43-3.27c3.42-2.18,6.13-5.01,8.11-8.49l13.69,6.7c-1.59,3.78-4.04,7.17-7.37,10.2-3.33,3.03-7.3,5.41-11.91,7.15-4.61,1.74-9.65,2.61-15.11,2.61Z"/><path class="cls-1" d="m2661.76,315.45v-110.9h17.56v110.9h-17.56Z"/><path class="cls-1" d="m2700.61,315.45v-80.54h16.08v15.78l-1.94-2.08c1.98-5.06,5.16-8.9,9.53-11.53,4.36-2.63,9.43-3.95,15.18-3.95s11.21,1.29,15.78,3.87c4.56,2.58,8.14,6.16,10.72,10.72,2.58,4.57,3.87,9.83,3.87,15.78v51.95h-16.68v-47.49c0-4.07-.74-7.52-2.23-10.35-1.49-2.83-3.6-5.01-6.33-6.55-2.73-1.54-5.83-2.31-9.3-2.31s-6.57.77-9.3,2.31c-2.73,1.54-4.84,3.75-6.33,6.63-1.49,2.88-2.23,6.31-2.23,10.27v47.49h-16.82Z"/><path class="cls-1" d="m2796.93,315.45v-65.35h-14.89v-15.18h14.89v-4.17c0-6.06,1.24-11.14,3.72-15.26,2.48-4.12,5.93-7.27,10.35-9.45,4.41-2.18,9.5-3.27,15.26-3.27,1.09,0,2.33.08,3.72.23,1.39.15,2.53.32,3.42.52v14.59c-.8-.2-1.69-.32-2.68-.37-.99-.05-1.79-.08-2.38-.08-4.47,0-8.04,1.02-10.72,3.05s-4.02,5.38-4.02,10.05v4.17h18.46v15.18h-18.46v65.35h-16.68Z"/><path class="cls-1" d="m2846.95,315.45v-80.54h16.08v16.22l-1.49-2.38c1.79-5.26,4.66-9.05,8.64-11.39,3.97-2.33,8.73-3.5,14.29-3.5h4.91v15.33h-6.99c-5.56,0-10.05,1.71-13.47,5.14-3.42,3.42-5.14,8.31-5.14,14.66v46.45h-16.82Z"/><path class="cls-1" d="m2924.95,317.24c-5.46,0-10.25-.97-14.37-2.9-4.12-1.94-7.32-4.61-9.61-8.04-2.28-3.42-3.42-7.47-3.42-12.14,0-4.36.97-8.28,2.91-11.76,1.93-3.47,4.94-6.4,9-8.78,4.07-2.38,9.18-4.07,15.33-5.06l27.98-4.61v13.25l-24.71,4.32c-4.46.79-7.74,2.21-9.83,4.24-2.08,2.04-3.12,4.64-3.12,7.82s1.17,5.58,3.5,7.52c2.33,1.93,5.33,2.9,9,2.9,4.56,0,8.56-.99,11.99-2.98,3.42-1.98,6.08-4.64,7.96-7.96,1.88-3.32,2.83-7.02,2.83-11.09v-20.69c0-3.97-1.47-7.22-4.39-9.75-2.93-2.53-6.83-3.8-11.69-3.8-4.46,0-8.36,1.17-11.68,3.5-3.33,2.33-5.78,5.34-7.37,9.01l-13.99-7c1.49-3.97,3.92-7.47,7.29-10.49,3.37-3.02,7.32-5.38,11.84-7.07,4.51-1.69,9.3-2.53,14.37-2.53,6.35,0,11.99,1.19,16.9,3.57,4.91,2.38,8.73,5.68,11.46,9.9,2.73,4.22,4.09,9.11,4.09,14.66v54.19h-16.08v-14.59l3.42.45c-1.88,3.27-4.29,6.1-7.22,8.48-2.93,2.38-6.25,4.22-9.97,5.51-3.72,1.29-7.87,1.94-12.43,1.94Z"/><path class="cls-1" d="m3016.65,317.24c-8.24,0-15.46-2.03-21.66-6.11-6.2-4.07-10.54-9.53-13.03-16.37l12.95-6.1c2.18,4.56,5.18,8.19,9,10.87,3.82,2.68,8.06,4.02,12.73,4.02,3.97,0,7.2-.89,9.68-2.68,2.48-1.79,3.72-4.22,3.72-7.3,0-1.98-.55-3.6-1.64-4.84-1.09-1.24-2.46-2.26-4.09-3.05-1.64-.79-3.3-1.39-4.99-1.79l-12.65-3.57c-6.95-1.98-12.13-4.99-15.56-9-3.42-4.02-5.14-8.71-5.14-14.07,0-4.86,1.24-9.1,3.72-12.73,2.48-3.62,5.9-6.42,10.27-8.41,4.36-1.98,9.28-2.98,14.74-2.98,7.34,0,13.89,1.81,19.65,5.43,5.75,3.62,9.83,8.66,12.21,15.11l-12.95,6.11c-1.59-3.87-4.09-6.94-7.52-9.23-3.42-2.28-7.27-3.42-11.54-3.42-3.67,0-6.6.87-8.78,2.61-2.18,1.74-3.27,4-3.27,6.77,0,1.88.49,3.45,1.49,4.69.99,1.24,2.28,2.23,3.87,2.98,1.59.74,3.22,1.37,4.91,1.86l13.1,3.87c6.65,1.89,11.76,4.84,15.33,8.86,3.57,4.02,5.36,8.81,5.36,14.37,0,4.76-1.27,8.96-3.8,12.58-2.53,3.62-6.03,6.45-10.49,8.49-4.46,2.03-9.68,3.05-15.63,3.05Z"/><path class="cls-1" d="m3097.93,316.35c-8.44,0-14.99-2.38-19.65-7.15-4.67-4.76-7-11.46-7-20.1v-39h-14.14v-15.18h2.23c3.77,0,6.7-1.09,8.78-3.27,2.08-2.18,3.12-5.16,3.12-8.93v-6.25h16.82v18.46h18.31v15.18h-18.31v38.26c0,2.78.45,5.14,1.34,7.07.89,1.94,2.33,3.42,4.32,4.47,1.98,1.04,4.56,1.56,7.74,1.56.79,0,1.68-.05,2.68-.15.99-.1,1.94-.2,2.83-.3v14.44c-1.39.2-2.93.4-4.61.6-1.69.2-3.18.3-4.47.3Z"/><path class="cls-1" d="m3123.39,315.45v-80.54h16.08v16.22l-1.49-2.38c1.79-5.26,4.66-9.05,8.64-11.39,3.97-2.33,8.73-3.5,14.29-3.5h4.91v15.33h-6.99c-5.56,0-10.05,1.71-13.47,5.14-3.42,3.42-5.14,8.31-5.14,14.66v46.45h-16.82Z"/><path class="cls-1" d="m3206.01,317.24c-6.06,0-11.37-1.37-15.93-4.1-4.56-2.73-8.11-6.55-10.64-11.46-2.53-4.92-3.8-10.59-3.8-17.05v-49.72h16.82v48.23c0,3.67.74,6.9,2.23,9.68,1.49,2.78,3.57,4.94,6.26,6.47,2.68,1.54,5.75,2.31,9.23,2.31s6.7-.79,9.38-2.38c2.68-1.58,4.79-3.82,6.33-6.7,1.54-2.88,2.31-6.25,2.31-10.12v-47.49h16.67v80.54h-15.93v-15.78l1.79,2.08c-1.89,4.97-5.01,8.79-9.38,11.46-4.37,2.68-9.48,4.02-15.33,4.02Z"/><path class="cls-1" d="m3302.77,317.24c-8.04,0-15.16-1.86-21.36-5.58-6.21-3.72-11.12-8.76-14.74-15.11-3.62-6.35-5.44-13.55-5.44-21.59s1.79-15.08,5.36-21.44c3.57-6.35,8.49-11.34,14.74-14.96,6.25-3.62,13.4-5.43,21.44-5.43,5.46,0,10.57.97,15.33,2.9,4.76,1.94,8.9,4.59,12.43,7.96,3.52,3.37,6.13,7.3,7.82,11.76l-14.74,6.85c-1.69-4.17-4.39-7.52-8.11-10.05-3.72-2.53-7.96-3.8-12.73-3.8s-8.66,1.12-12.28,3.35c-3.62,2.23-6.48,5.36-8.56,9.38-2.08,4.02-3.12,8.56-3.12,13.62s1.04,9.6,3.12,13.62c2.08,4.02,4.94,7.17,8.56,9.45,3.62,2.28,7.72,3.42,12.28,3.42,4.86,0,9.1-1.27,12.73-3.8,3.62-2.53,6.33-5.93,8.11-10.2l14.74,6.99c-1.59,4.27-4.15,8.11-7.67,11.54-3.52,3.42-7.67,6.13-12.43,8.11-4.76,1.98-9.92,2.98-15.48,2.98Z"/><path class="cls-1" d="m3389.56,316.35c-8.44,0-14.99-2.38-19.65-7.15-4.67-4.76-7-11.46-7-20.1v-39h-14.14v-15.18h2.23c3.77,0,6.7-1.09,8.78-3.27,2.08-2.18,3.12-5.16,3.12-8.93v-6.25h16.82v18.46h18.31v15.18h-18.31v38.26c0,2.78.45,5.14,1.34,7.07.89,1.94,2.33,3.42,4.32,4.47,1.98,1.04,4.56,1.56,7.74,1.56.79,0,1.68-.05,2.68-.15.99-.1,1.94-.2,2.83-.3v14.44c-1.39.2-2.93.4-4.61.6-1.69.2-3.18.3-4.47.3Z"/><path class="cls-1" d="m3443.75,317.24c-6.06,0-11.37-1.37-15.93-4.1-4.56-2.73-8.11-6.55-10.64-11.46-2.53-4.92-3.8-10.59-3.8-17.05v-49.72h16.82v48.23c0,3.67.74,6.9,2.23,9.68,1.49,2.78,3.57,4.94,6.26,6.47,2.68,1.54,5.75,2.31,9.23,2.31s6.7-.79,9.38-2.38c2.68-1.58,4.79-3.82,6.33-6.7,1.54-2.88,2.31-6.25,2.31-10.12v-47.49h16.67v80.54h-15.93v-15.78l1.79,2.08c-1.89,4.97-5.01,8.79-9.38,11.46-4.37,2.68-9.48,4.02-15.33,4.02Z"/><path class="cls-1" d="m3502.25,315.45v-80.54h16.08v16.22l-1.49-2.38c1.79-5.26,4.66-9.05,8.64-11.39,3.97-2.33,8.73-3.5,14.29-3.5h4.91v15.33h-6.99c-5.56,0-10.05,1.71-13.47,5.14-3.42,3.42-5.14,8.31-5.14,14.66v46.45h-16.82Z"/><path class="cls-1" d="m3593.95,317.24c-8.04,0-15.16-1.86-21.36-5.58-6.21-3.72-11.04-8.78-14.52-15.18s-5.21-13.57-5.21-21.51,1.76-15.33,5.29-21.59c3.52-6.25,8.26-11.19,14.22-14.81,5.96-3.62,12.7-5.43,20.25-5.43,6.05,0,11.46,1.04,16.23,3.13,4.76,2.08,8.78,4.94,12.06,8.56,3.27,3.62,5.78,7.77,7.52,12.43,1.74,4.66,2.61,9.63,2.61,14.89,0,1.29-.05,2.63-.15,4.02-.1,1.39-.3,2.68-.59,3.87h-64.16v-13.4h54.63l-8.03,6.1c.99-4.86.67-9.2-.97-13.03-1.64-3.82-4.12-6.85-7.45-9.08-3.32-2.23-7.22-3.35-11.68-3.35s-8.44,1.12-11.91,3.35c-3.47,2.23-6.15,5.41-8.03,9.53-1.89,4.12-2.63,9.11-2.23,14.96-.5,5.46.27,10.22,2.31,14.29,2.03,4.07,4.92,7.25,8.64,9.53,3.72,2.28,7.96,3.42,12.73,3.42s9-1.09,12.43-3.27c3.42-2.18,6.13-5.01,8.11-8.49l13.69,6.7c-1.59,3.78-4.04,7.17-7.37,10.2-3.33,3.03-7.3,5.41-11.91,7.15-4.61,1.73-9.65,2.61-15.11,2.61Z"/><path class="cls-1" d="m3675.08,315.45v-110.9h72.2v15.63h-54.64v33.35h48.68v15.63h-48.68v46.3h-17.56Z"/><path class="cls-1" d="m3797.01,317.24c-7.74,0-14.81-1.84-21.21-5.51-6.4-3.67-11.49-8.68-15.26-15.04-3.77-6.35-5.66-13.54-5.66-21.58s1.89-15.36,5.66-21.66c3.77-6.3,8.83-11.26,15.18-14.89,6.35-3.62,13.45-5.43,21.29-5.43s15.05,1.81,21.36,5.43c6.3,3.62,11.31,8.59,15.03,14.89,3.72,6.3,5.58,13.52,5.58,21.66s-1.89,15.38-5.66,21.73c-3.77,6.35-8.83,11.34-15.18,14.96-6.35,3.62-13.4,5.43-21.14,5.43Zm0-15.63c4.76,0,8.98-1.14,12.65-3.42,3.67-2.28,6.57-5.43,8.71-9.45,2.13-4.02,3.2-8.56,3.2-13.62s-1.06-9.58-3.2-13.55c-2.13-3.97-5.04-7.1-8.71-9.38-3.67-2.28-7.89-3.42-12.65-3.42s-8.86,1.14-12.58,3.42c-3.72,2.28-6.65,5.41-8.78,9.38-2.13,3.97-3.2,8.49-3.2,13.55s1.06,9.6,3.2,13.62c2.13,4.02,5.06,7.17,8.78,9.45,3.73,2.28,7.91,3.42,12.58,3.42Z"/><path class="cls-1" d="m3855.36,315.45v-80.54h16.08v16.22l-1.49-2.38c1.79-5.26,4.66-9.05,8.64-11.39,3.97-2.33,8.73-3.5,14.29-3.5h4.91v15.33h-6.99c-5.56,0-10.05,1.71-13.47,5.14-3.42,3.42-5.14,8.31-5.14,14.66v46.45h-16.82Z"/><path class="cls-1" d="m2661.76,508.21v-110.9h40.34c7.44,0,14.02,1.37,19.72,4.09,5.71,2.73,10.15,6.7,13.33,11.91,3.17,5.21,4.76,11.44,4.76,18.68s-1.61,13.3-4.84,18.46c-3.23,5.16-7.67,9.13-13.32,11.91-5.66,2.78-12.21,4.17-19.65,4.17h-22.78v41.68h-17.56Zm17.56-57.31h23.22c3.97,0,7.44-.79,10.42-2.38s5.31-3.8,7-6.63c1.69-2.83,2.53-6.18,2.53-10.05s-.84-7.22-2.53-10.05c-1.69-2.83-4.02-5.01-7-6.55-2.98-1.54-6.45-2.31-10.42-2.31h-23.22v37.96Z"/><path class="cls-1" d="m2792.17,510c-7.74,0-14.81-1.84-21.21-5.51-6.4-3.67-11.49-8.68-15.26-15.04-3.77-6.35-5.66-13.54-5.66-21.58s1.89-15.36,5.66-21.66c3.77-6.3,8.83-11.26,15.18-14.89,6.35-3.62,13.45-5.43,21.29-5.43s15.05,1.81,21.36,5.43c6.3,3.62,11.31,8.59,15.03,14.89,3.72,6.31,5.58,13.52,5.58,21.66s-1.89,15.38-5.66,21.73c-3.77,6.35-8.83,11.34-15.18,14.96-6.35,3.62-13.4,5.43-21.14,5.43Zm0-15.63c4.76,0,8.98-1.14,12.65-3.42,3.67-2.28,6.57-5.43,8.71-9.45,2.13-4.02,3.2-8.56,3.2-13.62s-1.06-9.58-3.2-13.55c-2.13-3.97-5.04-7.1-8.71-9.38-3.67-2.28-7.89-3.42-12.65-3.42s-8.86,1.14-12.58,3.42c-3.72,2.28-6.65,5.41-8.78,9.38-2.13,3.97-3.2,8.49-3.2,13.55s1.06,9.6,3.2,13.62c2.13,4.02,5.06,7.17,8.78,9.45,3.73,2.28,7.91,3.42,12.58,3.42Z"/><path class="cls-1" d="m2850.52,508.21v-112.69h16.82v112.69h-16.82Z"/><path class="cls-1" d="m2886.99,508.21v-112.69h16.82v75.47l-6.55-1.64,40.35-41.68h20.99l-30.37,32.3,31.71,48.23h-19.35l-28.28-42.73,9.97-1.34-23.82,25.3,5.36-11.16v29.92h-16.82Z"/><path class="cls-1" d="m2995.52,510c-5.46,0-10.25-.97-14.37-2.9-4.12-1.94-7.32-4.61-9.61-8.04-2.28-3.42-3.42-7.47-3.42-12.14,0-4.36.97-8.28,2.91-11.76,1.93-3.47,4.94-6.4,9-8.78,4.07-2.38,9.18-4.07,15.33-5.06l27.98-4.61v13.25l-24.71,4.32c-4.46.79-7.74,2.21-9.83,4.24-2.08,2.04-3.12,4.64-3.12,7.82s1.17,5.58,3.5,7.52c2.33,1.93,5.33,2.9,9,2.9,4.56,0,8.56-.99,11.99-2.98,3.42-1.98,6.08-4.64,7.96-7.96,1.88-3.32,2.83-7.02,2.83-11.09v-20.69c0-3.97-1.47-7.22-4.39-9.75-2.93-2.53-6.83-3.8-11.69-3.8-4.46,0-8.36,1.17-11.68,3.5-3.33,2.33-5.78,5.34-7.37,9.01l-13.99-6.99c1.49-3.97,3.92-7.47,7.29-10.49,3.37-3.03,7.32-5.38,11.84-7.07,4.51-1.69,9.3-2.53,14.37-2.53,6.35,0,11.99,1.19,16.9,3.57,4.91,2.38,8.73,5.68,11.46,9.9,2.73,4.22,4.09,9.11,4.09,14.67v54.18h-16.08v-14.59l3.42.45c-1.88,3.27-4.29,6.1-7.22,8.48-2.93,2.38-6.25,4.22-9.97,5.51-3.72,1.29-7.87,1.94-12.43,1.94Z"/><path class="cls-1" d="m3094.66,510c-7.74,0-14.66-1.86-20.76-5.58-6.11-3.72-10.92-8.76-14.44-15.11-3.52-6.35-5.29-13.5-5.29-21.44s1.79-15.08,5.36-21.44c3.57-6.35,8.39-11.36,14.44-15.04,6.05-3.67,12.9-5.51,20.54-5.51,6.45,0,12.16,1.29,17.12,3.87,4.96,2.58,8.88,6.16,11.76,10.72l-2.53,3.87v-48.83h16.68v112.69h-15.93v-16.37l1.93,3.12c-2.78,4.87-6.75,8.59-11.91,11.17-5.16,2.58-10.82,3.87-16.97,3.87Zm1.64-15.63c4.66,0,8.86-1.14,12.58-3.42,3.72-2.28,6.65-5.43,8.78-9.45,2.13-4.02,3.2-8.56,3.2-13.62s-1.06-9.58-3.2-13.55c-2.13-3.97-5.06-7.1-8.78-9.38-3.72-2.28-7.92-3.42-12.58-3.42s-8.89,1.14-12.65,3.42c-3.78,2.28-6.7,5.41-8.79,9.38-2.08,3.97-3.12,8.49-3.12,13.55s1.04,9.6,3.12,13.62c2.08,4.02,4.99,7.17,8.71,9.45,3.72,2.28,7.96,3.42,12.73,3.42Z"/><path class="cls-1" d="m3196.04,510c-7.74,0-14.81-1.84-21.21-5.51-6.4-3.67-11.49-8.68-15.26-15.04-3.77-6.35-5.66-13.54-5.66-21.58s1.89-15.36,5.66-21.66c3.77-6.3,8.83-11.26,15.18-14.89,6.35-3.62,13.45-5.43,21.29-5.43s15.05,1.81,21.36,5.43c6.3,3.62,11.31,8.59,15.03,14.89,3.72,6.31,5.58,13.52,5.58,21.66s-1.89,15.38-5.66,21.73c-3.77,6.35-8.83,11.34-15.18,14.96-6.35,3.62-13.4,5.43-21.14,5.43Zm0-15.63c4.76,0,8.98-1.14,12.65-3.42,3.67-2.28,6.57-5.43,8.71-9.45,2.13-4.02,3.2-8.56,3.2-13.62s-1.06-9.58-3.2-13.55c-2.13-3.97-5.04-7.1-8.71-9.38-3.67-2.28-7.89-3.42-12.65-3.42s-8.86,1.14-12.58,3.42c-3.72,2.28-6.65,5.41-8.78,9.38-2.13,3.97-3.2,8.49-3.2,13.55s1.06,9.6,3.2,13.62c2.13,4.02,5.06,7.17,8.78,9.45,3.73,2.28,7.91,3.42,12.58,3.42Z"/><path class="cls-1" d="m3287.73,509.11c-8.44,0-14.99-2.38-19.65-7.15-4.67-4.76-7-11.46-7-20.1v-39h-14.14v-15.18h2.23c3.77,0,6.7-1.09,8.78-3.27,2.08-2.18,3.12-5.16,3.12-8.93v-6.25h16.82v18.46h18.31v15.18h-18.31v38.26c0,2.78.45,5.14,1.34,7.07.89,1.94,2.33,3.42,4.32,4.47,1.98,1.04,4.56,1.56,7.74,1.56.79,0,1.68-.05,2.68-.15.99-.1,1.94-.2,2.83-.3v14.44c-1.39.2-2.93.4-4.61.6-1.69.2-3.18.3-4.47.3Z"/><path class="cls-1" d="m3320.63,508.21v-19.35h17.12v19.35h-17.12Z"/><path class="cls-1" d="m2136.08,21.71h-18.52s0-11.71,0-11.71h52.58s0,11.71,0,11.71h-18.52s0,45.87,0,45.87h-15.55s0-45.87,0-45.87Z"/><path class="cls-1" d="m2176.38,10.01h17.37s15.64,36.56,15.64,36.56l15.64-36.56h16.98s0,57.57,0,57.57h-13.72s0-31.38,0-31.38c0-1.34.29-5.76.38-6.14l-2.11,6.14-12.95,31.38h-9.21s-12.96-31.38-12.96-31.38c-.58-1.34-1.92-5.47-2.11-6.14,0,.38.38,4.8.38,6.14v31.38s-13.34,0-13.34,0V10.01Z"/><path class="cls-1" d="m550.54,10h101.28c3.83,0,6.94,3.11,6.94,6.94v483.92c0,3.83-3.11,6.94-6.94,6.94h-101.28c-3.83,0-6.94-3.11-6.94-6.94V16.94c0-3.83,3.11-6.94,6.94-6.94Z"/><path class="cls-1" d="m1309.68,110.6h-103.59c-3.83,0-6.94-3.11-6.94-6.94V16.94c0-3.83,3.11-6.94,6.94-6.94h322.33c3.83,0,6.94,3.11,6.94,6.94v86.72c0,3.83-3.11,6.94-6.94,6.94h-102.92s0,390.26,0,390.26c0,3.83-3.11,6.94-6.94,6.94h-101.95c-3.83,0-6.94-3.11-6.94-6.94V110.6Z"/><path class="cls-1" d="m1981.23,258.9l-75.54,130.83h-158.35s-75.54-130.83-75.54-130.83l75.54-130.84h158.35s75.54,130.84,75.54,130.84Zm-15.38-248.9h-278.66c-4.96,0-9.54,2.64-12.01,6.94l-135.69,235.03c-2.48,4.29-2.48,9.58,0,13.87l135.69,235.02c2.48,4.29,7.06,6.94,12.01,6.94h278.66c4.96,0,9.54-2.64,12.01-6.94l135.69-235.02c2.48-4.29,2.48-9.58,0-13.87l-135.69-235.02c-2.48-4.29-7.06-6.94-12.01-6.94Z"/><path class="cls-1" d="m1088.74,332.31c53.61-29.78,84.71-81.4,84.71-152.22,0-106.55-74.78-170.09-204.5-170.09h-218.73c-3.83,0-6.94,3.1-6.94,6.94v483.92c0,3.83,3.11,6.94,6.94,6.94h103.27c3.83,0,6.94-3.11,6.94-6.94v-129.5s124.7,0,124.7,0l71.27,132.79c1.21,2.25,3.56,3.66,6.11,3.66h109.93c5.26,0,8.61-5.63,6.09-10.25l-89.8-165.24Zm-146.93-62.21h-81.39s0-158.84,0-158.84h97.28c70.81,0,97.29,28.46,97.29,74.79,0,54.93-35.07,84.05-113.17,84.05Z"/><path class="cls-1" d="m264.07,503.82L492.39,19.9c2.17-4.6-1.19-9.9-6.27-9.9h-106.32c-2.74,0-5.23,1.62-6.34,4.13l-120.61,272.26L131.58,14.11c-1.11-2.5-3.6-4.11-6.34-4.11H16.95c-5.09,0-8.45,5.3-6.27,9.9l228.96,483.92c1.15,2.42,3.59,3.97,6.27,3.97h11.89c2.68,0,5.13-1.55,6.27-3.98Z"/></svg>