<?xml version="1.0" encoding="utf-8"?>
<!-- Generator: $$$/GeneralStr/196=Adobe Illustrator 27.6.0, SVG Export Plug-In . SVG Version: 6.00 Build 0)  -->
<svg version="1.1" id="Capa_1" xmlns="http://www.w3.org/2000/svg" xmlns:xlink="http://www.w3.org/1999/xlink" x="0px" y="0px"
	 viewBox="0 0 704.4 520" style="enable-background:new 0 0 704.4 520;" xml:space="preserve">
<style type="text/css">
	.st0{fill:#FFFFFF;}
	.st1{fill:#BDFBBA;}
	.st2{fill:#10352B;}
	.st3{fill:#9FAEAA;}
</style>
<g>
	<g>
		<g>
			<g>
				<g>
					<path d="M598.5,21.7l-18.5,0l0-11.7l52.6,0l0,11.7l-18.5,0l0,45.9l-15.5,0L598.5,21.7z"/>
				</g>
				<g>
					<path d="M638.8,10l17.4,0l15.6,36.6L687.4,10l17,0l0,57.6l-13.7,0l0-31.4c0-1.3,0.3-5.8,0.4-6.1l-2.1,6.1l-13,31.4l-9.2,0
						l-13-31.4c-0.6-1.3-1.9-5.5-2.1-6.1c0,0.4,0.4,4.8,0.4,6.1l0,31.4l-13.3,0L638.8,10z"/>
				</g>
			</g>
			<g>
				<path d="M443.6,258.9l-75.5,130.8l-158.4,0l-75.5-130.8l75.5-130.8l158.4,0L443.6,258.9z M428.2,10l-278.7,0
					c-5,0-9.5,2.6-12,6.9L1.9,252c-2.5,4.3-2.5,9.6,0,13.9l135.7,235c2.5,4.3,7.1,6.9,12,6.9l278.7,0c5,0,9.5-2.6,12-6.9l135.7-235
					c2.5-4.3,2.5-9.6,0-13.9l-135.7-235C437.8,12.7,433.2,10,428.2,10z"/>
			</g>
		</g>
	</g>
</g>
</svg>
